<svg xmlns="http://www.w3.org/2000/svg" version="1.0" preserveAspectRatio="xMidYMid meet" viewBox="582.8 253.93 412.2 482.05">
 <g fill="#000000">
  <path d="M755.7 735.3 c-1.8 -1.7 -0.5 -3.3 2.6 -3.3 3.8 0 6.2 1.3 5.3 2.9 -0.8 1.2 -6.8 1.5 -7.9 0.4z"/>
  <path d="M747.6 730.7 c-7.4 -4 -8.2 -5.7 -2.7 -5.7 2.3 0 4.1 0.4 4.1 0.9 0 0.5 1.1 1.2 2.5 1.5 2 0.5 2.5 1.3 2.5 3.6 0 1.7 -0.1 3 -0.2 3 -0.2 0 -3 -1.5 -6.2 -3.3z"/>
  <path d="M782 725.6 c0 -3.3 1.3 -4.6 4.6 -4.6 1.9 0 3.7 -0.6 4.1 -1.5 1 -1.8 8.5 -4.5 12.4 -4.5 1.9 0 2.9 -0.5 2.9 -1.5 0 -0.8 0.9 -1.5 2 -1.5 1.1 0 2 -0.4 2 -1 0 -0.5 1.3 -1 2.9 -1 1.6 0 3.1 -0.6 3.5 -1.5 0.3 -0.8 1.8 -1.5 3.4 -1.5 1.5 0 3.3 -0.5 3.9 -1.1 1.4 -1.4 5.5 -0.8 6.1 1 0.3 1 0 1.2 -1.2 0.8 -0.9 -0.4 -1.5 -0.3 -1.2 0.2 0.3 0.4 -4.1 2.6 -9.7 4.9 -5.6 2.2 -15.6 6.4 -22.2 9.1 -6.6 2.8 -12.3 5.1 -12.7 5.1 -0.5 0 -0.8 -0.6 -0.8 -1.4z"/>
  <path d="M714.8 713.2 c-7.6 -4.1 -8.7 -6.2 -3.3 -6.2 2.4 0 3.5 0.5 3.5 1.5 0 1 1 1.5 3 1.5 3.2 0 4.4 1.5 3.8 4.9 -0.3 1.9 -0.7 1.8 -7 -1.7z"/>
  <path d="M762 708.4 c0 -1.6 6 -4.5 9.7 -4.8 1.1 0 1.9 -0.4 1.8 -0.7 -0.3 -0.4 12.1 -5.9 24.3 -10.7 1 -0.3 1.3 0.3 1 2.4 -0.2 2.4 -0.8 3 -3.3 3.2 -1.6 0.2 -3.4 1 -3.8 1.8 -0.4 0.8 -1.5 1.4 -2.3 1.4 -0.8 0 -2.2 0.4 -3.2 0.9 -5 2.7 -11.5 5.1 -13.6 5.1 -1.3 0 -2.6 0.7 -3 1.5 -0.8 2.1 -7.6 2.1 -7.6 -0.1z"/>
  <path d="M832 704.1 c0 -2.9 0.2 -3.1 3.9 -3.1 3 0 4 -0.4 4.4 -2 0.3 -1.1 0.9 -2 1.4 -1.9 0.4 0.1 2.1 -0.3 3.6 -0.9 1.6 -0.7 3.5 -1.2 4.3 -1.2 0.8 0 1.4 -0.4 1.4 -1 0 -0.5 0.9 -1 1.9 -1 1.1 0 2.3 -0.4 2.6 -1 0.3 -0.5 1.7 -1 3.1 -1 1.4 0 3.4 -0.9 4.6 -2 1.2 -1.1 2.8 -2 3.5 -2 0.8 0 1.3 -1.2 1.3 -2.8 0 -2.6 -0.3 -2.8 -3 -2.4 -2.7 0.4 -3 0.1 -3 -2.1 0 -3.2 1.6 -4.4 2.3 -1.7 0.3 1.1 1.1 2 1.9 2 1 0 0.9 -0.3 -0.2 -1 -0.8 -0.5 -1 -1 -0.5 -1 0.6 0 2.9 1.9 5 4.1 2.2 2.3 3.3 3.8 2.5 3.4 -1.2 -0.6 -1.2 -0.5 -0.3 0.5 0.9 1 0.8 1.7 -0.5 3.1 -1.8 1.9 -5.3 3.5 -22.7 10.5 -9.5 3.8 -12.3 5.1 -16.7 7.2 -0.5 0.2 -0.8 -1.1 -0.8 -2.7z"/>
  <path d="M698 704.4 c-1.4 -0.8 -2.4 -1.8 -2.3 -2.4 0.2 -0.5 -0.5 -0.6 -1.4 -0.3 -1.2 0.5 -1.4 0.3 -0.8 -0.7 0.5 -0.9 0.4 -1.1 -0.4 -0.6 -1.4 0.9 -15.1 -6.4 -15.1 -8.1 0 -1.6 5.3 -1.7 8.3 -0.1 2.8 1.5 4.7 3.4 4.7 4.7 0 0.6 1.6 1.1 3.5 1.1 1.9 0 3.5 0.4 3.5 1 0 0.5 1.1 1.2 2.5 1.6 2.3 0.6 4.3 3.9 3.1 5.1 -0.3 0.4 -0.6 0.1 -0.6 -0.5 0 -0.7 -0.8 -1.2 -1.7 -1.2 -1.5 0 -1.6 0.2 -0.3 1 2.3 1.5 -0.2 1 -3 -0.6z"/>
  <path d="M747 702.9 l0 -3 4 2.2 c2.2 1.3 4 2.6 4 3.1 0 0.4 -1.8 0.8 -4 0.8 -3.8 0 -4 -0.2 -4 -3.1z"/>
  <path d="M729.3 696.8 c-1.3 -0.6 -2.3 -1.5 -2.3 -2 0 -0.4 -0.9 -0.8 -2 -0.8 -1.6 0 -2 -0.7 -2 -3 0 -1.6 0.2 -3 0.5 -3 0.3 0 2.8 1.1 5.6 2.5 3 1.6 4.7 3 4.3 3.7 -0.4 0.7 -0.3 0.8 0.4 0.4 1.3 -0.8 5.2 1 5.2 2.4 0 1.3 -6.9 1.1 -9.7 -0.2z"/>
  <path d="M803 691.4 c0 -1.7 6.5 -4.8 8.2 -3.8 0.7 0.5 0.8 0.2 0.3 -0.6 -0.5 -0.9 -0.2 -1 1.3 -0.6 1.2 0.4 2.4 0.2 2.9 -0.6 0.4 -0.8 2.8 -2.2 5.3 -3.3 2.5 -1 4.7 -2 4.9 -2.1 0.2 -0.2 -1.4 -1.8 -3.5 -3.6 -2.1 -1.8 -6.6 -5.8 -9.9 -8.8 -3.4 -3 -13.4 -12 -22.3 -19.9 -11.9 -10.5 -15.9 -14.7 -15 -15.4 1 -0.6 0.9 -0.7 -0.3 -0.4 -1.9 0.6 -6.3 -3.5 -5.2 -4.8 0.5 -0.4 0.3 -0.5 -0.4 -0.1 -0.6 0.3 -1.8 -0.2 -2.5 -1.1 -0.7 -1 -2.2 -2.3 -3.3 -3 -1.1 -0.6 -1.9 -1.6 -1.7 -2.3 0.1 -0.6 -0.2 -0.9 -0.6 -0.6 -1.2 0.7 -4.4 -2.8 -3.5 -3.9 0.5 -0.4 0.3 -0.5 -0.4 -0.1 -1.5 0.8 -39.6 -33.2 -38.7 -34.5 0.3 -0.5 0 -0.8 -0.7 -0.7 -0.7 0.2 -1.3 -0.3 -1.4 -1.1 0 -0.8 -1.2 -1.6 -2.6 -1.8 -1.9 -0.2 -3.5 0.6 -6.1 3.3 -2 1.9 -4.4 3.7 -5.5 3.8 -1 0.2 -1.8 0.9 -1.8 1.7 -0.1 0.8 -0.6 1.3 -1.3 1.2 -0.7 -0.2 -1.1 0.2 -0.9 0.8 0.4 1.8 -24.7 24.9 -25.6 23.6 -0.6 -0.8 -0.7 -0.6 -0.3 0.5 0.3 1.2 -1.7 3.8 -7.1 8.7 -4.2 3.9 -8.1 6.8 -8.6 6.4 -0.6 -0.3 -0.7 -0.1 -0.3 0.5 0.3 0.5 -2.8 4.2 -7 8 -4.8 4.5 -7.1 7.2 -6.2 7.5 0.7 0.3 0.3 0.6 -0.9 0.6 -1.9 0.1 -2.3 -0.4 -2.3 -3.2 0 -4.2 6.2 -10.7 10.3 -10.7 2.1 0 2.7 -0.5 2.7 -2.3 0 -1.5 2.6 -4.9 7.8 -10 6.4 -6.4 8.3 -7.7 11 -7.7 2.8 0 3.2 -0.3 3.2 -2.8 0 -3.9 14.3 -18.2 18.3 -18.2 2.2 0 2.7 -0.5 2.7 -2.3 0 -2.5 2.8 -5.7 4.8 -5.7 0.7 0 1.2 -0.6 1.2 -1.3 0 -2.6 6.5 -7.7 9.8 -7.7 3.9 0 8.2 3.5 8.2 6.7 0 1.9 0.5 2.3 2.9 2.3 2.1 0 3.9 1.1 6.5 4 2 2.2 4 4 4.4 4 1.7 0 4.2 3.7 4.2 6.3 0 2.3 0.4 2.7 3 2.7 2.2 0 4.9 1.8 11.5 7.7 4.8 4.3 8.5 8.4 8.5 9.5 0 1.1 0.7 1.8 1.9 1.8 2.6 0 11.1 7.8 11.1 10.2 0 1.2 0.7 1.8 2.3 1.8 1.4 0 5.8 3.4 12.7 10 5.8 5.5 10.7 10 10.9 10 0.1 0 3.6 3 7.7 6.6 5.3 4.7 7.4 7.3 7.4 9 0 2 0.5 2.4 3.1 2.4 2.2 0 3.2 0.5 3.6 2 0.3 1.1 1.1 2 1.8 2 0.7 0 2.4 0.9 3.9 2.1 4.4 3.5 3.3 11.9 -1.6 11.9 -1 0 -2.6 0.4 -3.6 0.9 -12.8 6.3 -19.2 7.9 -19.2 4.5z"/>
  <path d="M661.3 684.8 c-6.2 -3.4 -11.3 -6.5 -11.3 -7 0 -0.4 1.8 -0.8 4 -0.8 5.3 0 12 3.4 12 6 0 1.7 0.7 2 4 2 3.8 0 4 0.2 4 3 0 1.7 -0.3 3 -0.7 2.9 -0.5 0 -5.9 -2.8 -12 -6.1z"/>
  <path d="M708 685.1 c0 -0.6 -0.7 -1.1 -1.5 -1.1 -0.8 0 -1.5 -0.7 -1.5 -1.5 0 -1 -1 -1.5 -3.1 -1.5 -1.7 0 -2.8 -0.4 -2.4 -1 0.3 -0.6 -0.1 -0.7 -0.9 -0.4 -1.1 0.4 -1.6 0 -1.6 -1.5 0 -1.7 -0.6 -2.1 -3.3 -2.1 -4.6 0 -7 -2 -6.5 -5.4 0.3 -2.6 0.4 -2.6 2.3 -1.1 1.1 0.9 1.4 1.3 0.6 0.9 -0.9 -0.5 -1.2 -0.3 -0.7 0.5 0.4 0.6 1.1 0.9 1.6 0.6 1.1 -0.7 7.1 2.2 8.2 3.9 0.4 0.6 0.8 0.8 0.8 0.3 0 -0.4 1.4 0 3 0.8 1.7 0.9 2.8 2.1 2.4 2.7 -0.4 0.6 -0.1 0.9 0.7 0.6 2 -0.7 9.1 3 8.6 4.5 -0.5 1.5 -6.7 2.2 -6.7 0.8z"/>
  <path d="M854 672.5 c0 -2.1 -0.5 -2.5 -2.8 -2.5 -3.2 0 -5.2 -1.6 -5.2 -4.2 0 -1.3 -0.8 -1.8 -2.6 -1.8 -1.7 0 -2.8 -0.6 -3.1 -2 -0.3 -1.1 -1.1 -2 -1.9 -2 -2.1 0 -8.4 -6 -8.4 -8 0 -1.3 -0.9 -2 -2.7 -2.2 -1.9 -0.2 -3.2 -1.2 -4.1 -3 -0.7 -1.6 -1.9 -2.8 -2.7 -2.8 -1.8 0 -9.5 -7 -9.5 -8.7 0 -0.7 -0.7 -1.3 -1.5 -1.3 -2.5 0 -7.5 -5.1 -7.5 -7.7 0 -1.9 -0.5 -2.3 -2.8 -2.3 -3.4 0 -8.2 -4.6 -8.2 -7.8 0 -1.8 -0.6 -2.2 -2.8 -2.2 -1.6 0 -3.6 -0.8 -4.5 -1.8 -1.8 -2 -2.3 -7.2 -0.7 -7.2 0.6 0 1 0.5 1 1 0 0.6 0.6 1 1.3 1 0.7 0 3.1 1.9 5.2 4.1 2.2 2.3 3.4 3.8 2.6 3.4 -1 -0.5 -1.2 -0.4 -0.7 0.4 0.4 0.6 1.2 0.9 1.7 0.5 0.7 -0.4 7.9 5.7 15.9 13.6 0.3 0.3 3.7 3.3 7.7 6.8 5.1 4.5 7 6.8 6.7 8 -0.5 1.4 -0.4 1.4 0.4 0.2 0.9 -1.2 2 -0.5 6.4 3.6 2.9 2.7 9.9 8.9 15.6 13.7 6.2 5.4 10 9.3 9.6 10 -0.4 0.7 -0.4 0.9 0.1 0.5 0.9 -0.9 4.5 0.9 4.5 2.2 0 0.6 -1.6 1 -3.5 1 -3.1 0 -3.5 -0.3 -3.5 -2.5z"/>
  <path d="M913.3 671.5 c-5.6 -2.5 -13.6 -8 -21.8 -15 -18.8 -16 -29.4 -25.8 -28.8 -26.8 0.3 -0.5 0.1 -0.7 -0.4 -0.4 -1.3 0.8 -34.3 -27.8 -34.3 -29.7 0 -1.7 6.3 -7.6 8.2 -7.6 0.8 0 2.2 -0.8 2.9 -1.7 1.3 -1.7 1.2 -1.7 -0.6 -0.4 -1.1 0.7 0.2 -0.7 2.8 -3.3 2.7 -2.5 5.3 -4.6 5.8 -4.6 1.7 0 9.9 8.2 9.2 9.3 -0.3 0.5 -0.1 0.7 0.5 0.3 1.3 -0.8 7.2 4 7.2 5.9 0 0.7 0.6 1.6 1.3 1.9 0.6 0.3 -0.4 0.4 -2.3 0.3 -2.8 -0.2 -3.6 -0.7 -3.8 -2.4 -0.3 -1.7 -1 -2.3 -2.8 -2.3 -2 0 -2.4 -0.5 -2.4 -3 0 -2.8 -0.3 -3 -3.4 -3 -1.9 0 -3.8 -0.4 -4.1 -1 -0.3 -0.5 -1.5 -1 -2.6 -1 -1.4 0 -1.9 0.7 -1.9 2.8 -0.1 1.7 -1.3 3.9 -3.5 6.2 l-3.5 3.4 3 3.1 c1.6 1.7 3 3.9 3 4.8 0 1.1 0.8 1.7 2.5 1.7 2.1 0 2.5 0.5 2.5 3 0 2.7 0.3 3 3.3 3 4 0 5.7 1.5 5.7 5.2 0 2.5 0.3 2.8 3.3 2.8 3.6 0 6.7 2.5 6.7 5.3 0 1.1 0.8 1.7 2.3 1.7 2.8 0 4.7 1.7 4.7 4.2 0 1.2 0.8 1.8 2.3 1.8 2.9 0 5.7 2.9 5.7 5.8 0 1.7 0.6 2.2 2.8 2.2 3.5 0 6.2 2.7 6.2 6.3 0 2.4 0.4 2.7 3.4 2.7 2.6 0 4.4 0.9 7.1 3.4 2 1.9 4.3 3.7 5.1 4 0.9 0.3 1.8 1.5 2.1 2.6 0.4 1.4 1.4 2 3.4 2 1.6 0 2.9 0.5 2.9 1 0 0.6 0.9 1 2 1 1.1 0 2 0.5 2 1 0 0.6 0.8 1 1.8 1 1.5 0 2.3 -1.6 4 -8.2 1.1 -4.6 2.4 -10.5 2.7 -13.3 0.3 -2.7 1.2 -8.4 2 -12.5 2.1 -11 4.4 -28.2 5.1 -38.7 0.4 -5.1 1 -9.3 1.5 -9.3 0.4 0 0.7 -2.8 0.7 -6.2 -0.1 -3.5 0.1 -17.1 0.4 -30.3 l0.6 -24 2.7 -0.3 2.8 -0.4 -0.7 7.9 c-0.3 4.3 -0.7 12.2 -0.7 17.6 -0.2 9.4 -0.2 9.7 -2.3 9.1 -2 -0.6 -2 -0.6 -0.2 0.8 1.8 1.4 1.9 2.4 1.2 13.9 -0.4 6.8 -1 12.6 -1.4 12.9 -0.4 0.3 -0.8 4.3 -0.9 9 -0.5 20.3 -8.8 70.4 -12.3 73.5 -2.4 2.2 -7 2.6 -10.7 1z m23.4 -89.7 c-0.2 -1.3 -0.4 -0.5 -0.4 1.7 -0.1 2.2 0.1 3.2 0.4 2.3 0.2 -1 0.2 -2.8 0 -4z"/>
  <path d="M618.5 662 c-2.7 -1.6 -4.3 -3 -3.5 -3 1.3 0 1.3 -0.1 0 -1 -1.1 -0.7 -0.6 -1 2.1 -1 4.7 0 7.2 1.9 6.7 5.3 l-0.3 2.6 -5 -2.9z"/>
  <path d="M667 661 c0 -1.6 0.2 -3 0.5 -3 1 0 6.5 3 6.5 3.6 0 0.3 -0.4 0.2 -1 -0.1 -0.5 -0.3 -1 -0.2 -1 0.4 0 0.5 0.6 1.2 1.3 1.4 0.6 0.3 -0.5 0.6 -2.5 0.6 -3.6 0.1 -3.8 -0.1 -3.8 -2.9z"/>
  <path d="M654.8 656.8 c-2.2 -0.7 -2.8 -1.6 -2.8 -3.9 0 -1.6 0.3 -2.9 0.8 -2.9 1.5 0 11.2 6.1 11.2 7 0 1.3 -5.6 1.2 -9.2 -0.2z"/>
  <path d="M598.8 651.2 c-1.6 -0.9 -2.8 -2 -2.8 -2.3 0 -1.2 9.1 -9.4 10.2 -9.1 0.5 0.1 0.7 -0.1 0.4 -0.6 -0.4 -0.7 9.7 -11.1 16.2 -16.6 l2.2 -1.9 0 3.7 c0 2.8 -0.5 3.9 -1.8 4.3 -1 0.2 -2.2 1.4 -2.7 2.6 -0.8 1.7 -2 2.3 -5.2 2.5 -4.1 0.3 -4.3 0.5 -4.3 3.5 0 2.6 -1 4.3 -4.5 7.7 -2.4 2.4 -4.5 5.1 -4.7 6.1 -0.3 1.7 -0.5 1.7 -3 0.1z"/>
  <path d="M905.8 627.5 c0.2 -1.9 0.7 -3.5 1.1 -3.5 0.3 0 0.6 -2.4 0.7 -5.3 0.1 -2.8 0.6 -10.1 1.3 -16.1 0.6 -6 1.1 -13.1 1.1 -15.8 0 -4.1 0.3 -4.8 2 -4.8 1.8 0 2 0.7 2 5.8 0 6.7 -1.6 24.5 -3.1 35.5 -1 6.9 -1.4 7.7 -3.3 7.7 -1.9 0 -2.1 -0.4 -1.8 -3.5z"/>
  <path d="M891.6 627.1 c-2 -2.1 -2.7 -3.7 -2.4 -5.9 l0.3 -3 6.5 5.9 6.5 5.9 -4.1 0 c-3.1 0 -4.6 -0.6 -6.8 -2.9z"/>
  <path d="M631 615.1 c0 -0.5 3.5 -4.1 7.8 -8.1 4.2 -4 14.9 -14.1 23.7 -22.5 19.2 -18.2 22 -20.7 23 -19.7 0.5 0.4 0.5 0.2 0.2 -0.4 -0.8 -1.4 3.6 -5.7 4.8 -4.7 0.4 0.5 0.5 0.3 0.2 -0.3 -0.9 -1.5 16.2 -17 18.2 -16.6 1.2 0.2 1.3 0.1 0.3 -0.6 -1 -0.7 -1 -1.1 0.2 -2.1 0.8 -0.7 2.2 -1.1 3 -0.9 1.8 0.4 36.6 32.6 36.6 33.9 0 0.5 -1.5 0.9 -3.3 0.9 -2.7 0 -4.4 -1.2 -10.5 -7.3 -3.9 -4 -7.2 -8 -7.2 -9 0 -1.1 -0.8 -1.7 -2.3 -1.7 -2.7 0 -11.7 -8.7 -11.7 -11.3 0 -2.4 -2.7 -2.1 -3.3 0.3 -0.3 1.1 -1.2 2 -2.1 2 -0.9 0 -1.6 0.5 -1.6 1.1 0 2.2 -10.4 11.9 -12.7 11.9 -1.4 0 -2.3 0.6 -2.3 1.6 0 0.9 -3 4.7 -6.7 8.5 -5.2 5.2 -7.4 6.9 -9.5 6.9 -2.3 0 -2.8 0.5 -2.8 2.3 0 2.8 -1.7 4.7 -4.2 4.7 -1.1 0 -1.8 0.7 -1.8 1.8 0 2.7 -5.2 7.2 -8.3 7.2 -2.1 0 -2.7 0.5 -2.7 2.3 0 1.5 -3 5.2 -9.3 11.5 -7.8 7.8 -9.7 9.2 -12.5 9.2 -1.7 0 -3.2 -0.4 -3.2 -0.9z"/>
  <path d="M875.1 612.5 c-1.7 -1.9 -3.4 -3.5 -3.9 -3.5 -1.9 0 -4.2 -3.8 -4.2 -6.9 l0 -3.3 3.4 2.9 c3.3 2.7 4.9 5.2 2.4 3.7 -0.9 -0.5 -0.9 -0.2 0.1 0.9 0.7 0.9 1.9 1.7 2.5 1.7 0.6 0 0.4 -0.5 -0.4 -1.1 -0.8 -0.6 -1 -0.9 -0.3 -0.7 1.7 0.5 10.3 7.9 10.3 8.9 0 0.5 -1.5 0.9 -3.4 0.9 -2.6 0 -4.1 -0.8 -6.5 -3.5z"/>
  <path d="M583 466 c0 -140.3 0 -141 2 -141 2 0 2 0.7 2 136.5 0 120.7 0.2 136.5 1.5 136.5 0.8 0 1.5 -0.8 1.5 -1.8 0 -1.8 25.1 -27.2 26.9 -27.2 0.6 0 1.1 -0.4 1.1 -1 0 -0.5 0.9 -1 2 -1 1.2 0 2 -0.7 2 -1.8 0 -0.9 5.1 -6.8 11.3 -13 10.6 -10.6 11.5 -11.2 15.2 -11.2 l4 0.1 -11.3 10.9 c-6.3 6.1 -11.9 10.7 -12.4 10.3 -0.6 -0.3 -0.8 -0.2 -0.5 0.4 0.8 1.3 -5.7 7.6 -6.8 6.6 -0.4 -0.5 -0.5 -0.3 -0.2 0.3 0.8 1.4 -3.6 5.7 -4.8 4.7 -0.4 -0.5 -0.5 -0.3 -0.2 0.3 0.9 1.5 -11.1 12.7 -12.5 11.8 -0.6 -0.4 -0.8 -0.3 -0.5 0.3 0.7 1.1 -6.6 8.6 -7.6 7.8 -0.4 -0.3 -0.5 -0.2 -0.2 0.2 0.8 1 -1.6 3.3 -2.8 2.6 -0.5 -0.3 -0.7 -0.1 -0.4 0.4 0.6 0.9 -7.4 9.3 -8.8 9.3 -0.3 0 -0.5 -63.4 -0.5 -141z"/>
  <path d="M768.7 598.2 c-4.7 -4.7 -5.7 -6.3 -5.7 -9.1 l0 -3.4 2.5 2.3 c1.3 1.2 2.2 2.7 1.8 3.3 -0.3 0.6 -0.1 0.7 0.6 0.3 1.1 -0.7 13.1 9.8 13.1 11.6 0 0.4 -1.5 0.8 -3.2 0.8 -2.6 -0.1 -4.5 -1.2 -9.1 -5.8z"/>
  <path d="M752.6 583.1 c-2.1 -2.2 -2.7 -3.7 -2.4 -6.1 l0.3 -3.3 5.8 5.2 c3.1 2.9 5.7 5.7 5.7 6.2 0 0.5 -1.5 0.9 -3.3 0.9 -2.4 0 -4.1 -0.8 -6.1 -2.9z"/>
  <path d="M789.4 567.5 c-7.9 -8.3 -18.1 -18.9 -22.5 -23.7 l-8.1 -8.8 3.4 0 c4 0 5.8 1.5 5.8 4.7 0 1.7 0.6 2.3 2.3 2.3 3.5 0 6.7 4 6.7 8.3 0 3.5 0.2 3.7 3.3 3.7 2.8 0 4.7 1.4 13.6 10.4 l10.3 10.3 7.2 -7.4 c6.4 -6.8 7.4 -7.4 10.5 -7.1 l3.3 0.3 -7.7 8.2 c-4.2 4.6 -8.2 8 -8.8 7.6 -0.5 -0.3 -0.7 -0.2 -0.4 0.4 0.4 0.6 -0.5 2.1 -1.9 3.4 l-2.5 2.4 -14.5 -15z"/>
  <path d="M911 578.8 c-0.7 -17.2 -0.6 -17.8 1.8 -17.8 2.1 0 2.2 0.3 2.2 9.5 0 8.8 -0.1 9.5 -2 9.5 -1.1 0 -2 -0.6 -2 -1.2z"/>
  <path d="M900.4 553.8 c0.5 -3 2.2 -5 8.5 -10 2.8 -2.4 3.1 -2.3 3.1 0.9 0 1.7 -1.2 3.7 -3.3 5.7 -1.8 1.7 -3.6 3.9 -4 4.9 -0.3 0.9 -1.6 1.7 -2.8 1.7 -1.9 0 -2.1 -0.4 -1.5 -3.2z"/>
  <path d="M829 552.4 c0 -3.4 0.7 -4.6 4.3 -8.2 4.1 -4 7.9 -5.3 9.2 -3.2 0.3 0.6 -0.1 1 -0.9 1 -1 0 -1.3 0.6 -0.9 1.7 0.5 1.2 0.2 1.5 -1 1 -1 -0.4 -1.4 -0.2 -1.1 0.6 0.2 0.7 -1.8 3.5 -4.6 6.2 l-5 4.9 0 -4z"/>
  <path d="M609.7 543.3 c-1.6 -0.4 -1.7 -7.2 -1.7 -127.8 0 -81.6 0.4 -127.6 1 -128 0.6 -0.3 1 0.2 1 1.2 0 1.5 0.2 1.6 1 0.3 0.8 -1.2 1 -1.1 1 0.7 0 1.2 -0.4 2.5 -1 2.8 -0.5 0.3 -1 1.2 -1 1.8 0 0.7 0.4 0.6 1 -0.3 0.7 -1.1 1 -0.5 1 2.3 0 2 -0.4 3.7 -1 3.7 -0.5 0 -1 1.1 -1 2.5 0 1.8 0.4 2.3 1.5 1.9 1.3 -0.5 1.4 -0.2 0.6 1.8 -0.5 1.4 -0.6 3.1 -0.1 3.8 0.4 0.7 0.4 2.5 0 3.9 -0.4 1.4 -0.6 4.2 -0.4 6 0.3 2.1 -0.1 3.8 -0.8 4.3 -1 0.6 -1 0.8 0 0.8 0.9 0 1.3 1.5 1.3 4.8 0 2.6 0 5.8 0 7.1 0.1 1.3 -0.5 2.7 -1.3 3.2 -1 0.6 -1 0.9 0 0.9 0.6 0 1.2 0.5 1.2 1.1 0 0.5 -0.6 0.7 -1.3 0.4 -0.6 -0.4 -0.4 0 0.6 0.8 1.8 1.5 1.9 3.7 0.2 4.9 -1.3 0.9 -1.7 6 -0.4 5.3 0.5 -0.4 0.9 0.1 0.9 0.9 0 0.9 -0.4 1.6 -1 1.6 -0.5 0 -1 0.9 -1 2 0 1.1 0.5 2 1 2 0.6 0 1 0.9 1 1.9 0 1.1 -0.4 2.3 -1 2.6 -0.5 0.3 -1 2.1 -0.9 3.8 0 2.7 0.2 2.9 0.9 1.2 0.8 -1.9 0.9 -1.9 0.9 0.3 0.1 1.2 -0.3 2.2 -0.9 2.2 -0.5 0 -1 0.8 -1 1.8 0 1.4 0.2 1.5 1 0.2 0.7 -1.1 1 -0.5 1 2.3 0 2 -0.4 3.7 -1 3.7 -0.5 0 -1 0.8 -0.9 1.8 0 1 0.3 1.2 0.6 0.5 0.2 -0.7 0.8 -1.3 1.2 -1.3 1.1 0 0.8 6.4 -0.4 7.2 -0.6 0.5 -0.5 0.8 0.3 0.8 0.6 0 1.2 0.7 1.2 1.6 0 1.4 -0.3 1.4 -1.8 0.3 -1.4 -1.1 -1.5 -1.1 -0.4 0.1 1.4 1.7 1.7 13 0.2 13 -1.6 0 -1.1 3.7 0.5 4.4 1.2 0.4 1.3 1.1 0.7 2.3 -0.5 1 -0.7 2.4 -0.4 3.2 0.3 0.8 0 1.1 -0.7 0.7 -0.6 -0.4 -1.1 -0.2 -1.1 0.3 0 0.6 0.5 1.1 1 1.1 0.6 0 1 0.9 1 1.9 0 1.1 -0.4 2.3 -1 2.6 -0.5 0.3 -1 1.2 -1 1.8 0 0.7 0.4 0.6 1 -0.3 0.8 -1.3 1 -1.3 1 0.2 0 0.9 -0.6 1.9 -1.2 2.1 -1 0.4 -1 0.6 0 0.6 1.5 0.1 1.6 3.1 0.1 3.1 -0.6 0 -0.3 0.7 0.5 1.6 1.9 1.8 1.9 1.6 0.6 4.8 -0.5 1.4 -0.6 2.6 -0.1 2.6 0.4 0 0.7 2.1 0.6 4.8 -0.1 3 -0.6 4.6 -1.3 4.5 -0.7 -0.2 -1.2 0.2 -1.2 0.8 0 0.6 0.7 0.8 1.6 0.5 1.3 -0.5 1.5 -0.2 0.9 1.6 -0.4 1.3 -0.7 3.1 -0.6 4.1 0 1 -0.5 1.5 -1.2 1.1 -0.7 -0.3 -0.5 0 0.3 0.8 2.2 1.9 2.2 12.8 0 12.8 -1.1 0 -1.2 0.2 -0.2 0.8 0.7 0.5 1.2 2.7 1.1 5.5 -0.1 2.5 -0.5 4.4 -0.9 4.2 -0.4 -0.2 -0.7 0.2 -0.7 1 0 0.8 0.5 1.1 1 0.8 0.6 -0.4 0.8 0.5 0.5 2.1 -0.3 1.4 -0.1 2.6 0.4 2.6 0.5 0 0.6 0.5 0.3 1 -0.4 0.6 -1.2 0.8 -1.8 0.4 -0.7 -0.3 -0.4 0.1 0.6 0.9 1.5 1.3 1.6 1.9 0.7 3.6 -0.8 1.6 -0.8 2.1 0.1 2.1 0.7 0 0.4 0.9 -0.7 2.2 -1.5 1.9 -1.6 2 -0.1 0.9 1.5 -1.2 1.7 -1 1.7 1.8 0 1.8 -0.4 3 -0.9 2.6 -1.5 -0.9 -2.5 1.5 -1.2 2.8 0.9 0.9 1.1 0.7 0.5 -0.8 -0.5 -1.4 -0.4 -1.7 0.4 -1 1.2 1.2 0.4 6.5 -1 6.5 -0.5 0 -0.2 0.7 0.6 1.6 1.3 1.2 1.6 3.7 1.5 11.2 -0.1 11.2 -0.6 14.5 -2.3 13.5 -0.6 -0.4 -0.5 0.1 0.3 1 0.7 0.9 1.1 2.6 0.8 3.7 -0.3 1.3 0 2 0.9 2 0.8 0 1.7 0 2.2 0 0.4 0 0.7 -0.3 0.8 -0.7 0.2 -1.8 1.7 -4.3 2.6 -4.3 0.5 0 1.9 -1.2 3.1 -2.6 l2.3 -2.6 0.2 3.6 c0.2 3.2 0 3.6 -2.2 3.6 -1.9 0 -2.5 0.6 -2.8 2.8 -0.3 2.3 -0.8 2.7 -3.8 2.9 -1.9 0 -4.3 -0.1 -5.3 -0.4z m1.7 -24.7 c0.2 -1.4 0 -2.3 -0.4 -2.1 -0.4 0.3 -0.7 1.6 -0.7 3 0 3.2 0.8 2.6 1.1 -0.9z"/>
  <path d="M805.8 540.5 c0.4 -0.7 6.1 -7 12.7 -14 6.6 -7 12.3 -13.2 12.6 -13.7 0.3 -0.5 1.4 -1.1 2.4 -1.2 1 -0.1 2 -1.1 2.1 -2.1 0.2 -1 2.1 -3.7 4.3 -5.9 l4.1 -4.1 0 4.1 c0 3.7 -0.6 4.6 -6.4 10.2 -3.7 3.6 -7.3 6.2 -8.5 6.2 -1.4 0 -2.1 0.6 -2.1 2 0 1.1 -0.8 2.9 -1.7 4.1 -5.8 7 -8.8 9.9 -10.4 9.9 -1.2 0 -1.9 0.9 -2.1 2.8 -0.3 2.4 -0.7 2.7 -4 2.8 -2.9 0.2 -3.6 -0.1 -3 -1.1z"/>
  <path d="M901.2 540.1 c-1.7 -1.1 -0.8 -5.9 1.5 -7.6 1.6 -1.2 1.8 -1.1 2.1 1 0.2 1.3 1.2 2.5 2.3 2.8 1 0.3 1.9 1.1 1.9 1.7 0 0.7 -0.7 1 -1.6 0.6 -0.8 -0.3 -1.3 -0.2 -1 0.3 0.3 0.5 -0.1 1.2 -1 1.5 -2 0.8 -2.6 0.7 -4.2 -0.3z"/>
  <path d="M791.7 536.2 c-1.5 -1.5 -2.7 -3.8 -2.7 -5 0 -1.4 -0.6 -2.2 -1.8 -2.2 -1 0 -4.1 -2.4 -7 -5.3 -4.1 -4.1 -5.2 -5.9 -5.2 -8.5 0 -1.8 0.4 -3.2 0.8 -3.2 1.7 0 5.4 4.9 4.7 6.1 -0.5 0.7 -0.4 1 0.2 0.6 1.3 -0.8 14.9 13 14.7 14.9 -0.1 0.7 0.2 1.2 0.6 0.9 0.4 -0.2 1.8 0.7 3 2 l2.3 2.5 -3.4 0 c-2.6 0 -4.3 -0.8 -6.2 -2.8z"/>
  <path d="M655 534.8 c0 -3.7 3.3 -7.8 6.3 -7.8 1 0 1.7 -0.8 1.7 -1.8 0 -1 3 -4.8 6.8 -8.5 6.1 -6 7.2 -6.7 10.7 -6.7 l4 0 -8.5 8.3 c-4.7 4.6 -11.3 10.9 -14.7 14.2 l-6.3 5.8 0 -3.5z"/>
  <path d="M846 534.4 c0 -3.8 0.6 -4.6 8.9 -12.7 5.5 -5.5 9.6 -8.7 11 -8.7 1.6 0 2.1 -0.6 2.1 -2.8 0 -3.5 12.3 -16.2 15.8 -16.2 1.7 0 2.2 -0.6 2.2 -2.6 0 -4 15.3 -19.4 19.2 -19.4 2.5 0 2.8 -0.4 2.8 -3.3 0 -2.7 1.1 -4.3 6.4 -9.4 5.9 -5.6 6.9 -6.2 12 -6.8 4.7 -0.6 6 -0.4 7.6 1 1.1 1 2 2.6 2 3.7 0 1.2 0.7 1.8 2.1 1.8 2.6 0 9.9 6.8 9.9 9.3 0 1.1 0.8 1.7 2.3 1.7 2.6 0 8.7 5.7 8.7 8.2 0 1 1.1 1.7 3 2 2 0.3 3 0 3 -0.9 0 -0.7 0.5 -1.3 1 -1.3 0.6 0 1 -1.6 1 -3.5 0 -3.1 0.3 -3.5 2.6 -3.5 1.9 0 2.4 0.4 2 1.8 -0.2 0.9 -1.2 4.9 -2.2 8.7 -0.9 3.9 -1.9 7.3 -2.1 7.8 -0.2 0.4 -2.2 -0.7 -4.4 -2.4 -2.1 -1.7 -3.6 -3.5 -3.3 -4 0.3 -0.5 0 -0.8 -0.8 -0.7 -0.7 0.2 -1.2 -0.3 -1 -1 0.1 -0.8 -0.1 -1.1 -0.6 -0.8 -1.2 0.7 -12.2 -9.2 -11.9 -10.7 0.1 -0.6 -0.4 -1.1 -1.1 -1.2 -0.8 0 -1.9 -0.7 -2.5 -1.6 -0.7 -0.9 -1.6 -1.7 -2.2 -1.8 -0.5 -0.1 -3.6 -2.7 -6.8 -5.8 l-5.9 -5.5 -2.2 2.1 c-1.2 1.2 -2.8 2.1 -3.5 2.1 -0.7 0 -0.9 0.5 -0.5 1.1 0.8 1.4 -4.6 7 -6 6.2 -0.6 -0.3 -0.8 -0.3 -0.4 0.2 1 1.1 -32.2 35.6 -33.5 34.8 -0.5 -0.3 -0.7 -0.1 -0.3 0.5 0.3 0.5 -2.8 4.7 -7.1 9.2 -5.7 6.1 -7.8 7.8 -8.6 6.8 -0.6 -1 -0.7 -0.9 -0.3 0.4 0.3 1.2 -2.3 4.7 -8.9 11.5 l-9.4 9.8 -0.1 -4.1z"/>
  <path d="M749.6 526 c-3.7 -4 -6.4 -7.6 -6 -8.2 0.4 -0.6 0.3 -0.8 -0.3 -0.5 -0.6 0.4 -5 -3.5 -9.8 -8.6 -4.9 -5 -12 -12.5 -15.8 -16.4 -3.8 -4 -7.3 -7 -7.8 -6.7 -0.5 0.3 -0.9 -0.4 -0.9 -1.5 0 -1.7 0.6 -2.1 3.3 -2.1 3.4 0 7.7 3.3 7.7 5.8 0 0.7 0.7 1.2 1.5 1.2 0.9 0 1.8 0.7 2.1 1.5 0.3 0.8 4.2 4.9 8.5 9.2 5.4 5.2 7.9 8.4 7.9 10 0 1.5 0.6 2.3 1.8 2.3 2.5 0 11.2 9.1 11.2 11.8 0 1.5 0.6 2.2 2 2.2 1.6 0 2 0.7 2 3.5 0 1.9 -0.2 3.5 -0.4 3.5 -0.2 0 -3.4 -3.2 -7 -7z"/>
  <path d="M907 530.2 c0 -1.4 8.6 -9.3 9.3 -8.6 1.4 1.4 0.7 6.1 -1.1 7.7 -1.9 1.7 -8.2 2.4 -8.2 0.9z"/>
  <path d="M637 517.4 l4.5 -4.5 0.3 3.1 c0.4 4.2 -1.3 6 -5.6 6 l-3.6 0 4.4 -4.6z"/>
  <path d="M937.7 517.3 c-0.4 -0.3 -0.7 -1.7 -0.7 -3 0 -3.2 -2 -3.7 -6.5 -1.9 -2.1 0.9 -5.3 1.6 -7.2 1.6 -3 0 -3.4 -0.2 -2.3 -1.5 0.7 -0.8 1.6 -1.2 2.1 -0.9 0.5 0.3 0.8 0 0.7 -0.7 -0.4 -1.7 8.8 -5.1 12.6 -4.7 3.3 0.3 5.2 3.8 2.1 3.8 -0.9 0 -1.3 0.5 -1 1.1 0.4 0.6 1.3 0.8 2.1 0.5 1 -0.4 1.4 0.4 1.4 2.9 0 3.3 -1.6 4.6 -3.3 2.8z"/>
  <path d="M646.8 510.6 c-1.5 -1.1 -1.1 -1.9 4.7 -7.6 l6.5 -6.4 0 3.5 c0 4.2 -1.5 5.9 -5.2 5.9 -2.4 0 -2.8 0.4 -2.8 3 0 3.3 -0.6 3.6 -3.2 1.6z"/>
  <path d="M762.8 504.6 c-3.5 -4 -4.8 -6.3 -4.8 -8.5 0 -2.7 -0.3 -3.1 -2.8 -3.1 -3.7 0 -9.2 -5.6 -9.2 -9.3 0 -2.2 -0.5 -2.7 -2.4 -2.7 -1.5 0 -3.7 -1.5 -6 -4 -2.8 -3.1 -3.6 -4.8 -3.6 -7.8 l0.1 -3.7 5.9 6.4 c3.2 3.6 5.6 6.9 5.3 7.4 -0.3 0.6 -0.2 0.7 0.4 0.4 0.8 -0.5 25.5 25.3 27.6 28.9 0.6 1.1 0 1.4 -2.5 1.4 -2.7 0 -4.1 -1 -8 -5.4z"/>
  <path d="M690 500.9 c0 -2.9 0.9 -4.4 5.8 -9.2 4.7 -4.5 6.6 -5.7 9 -5.7 1.8 0 3.2 0.2 3.2 0.5 0 1.1 -10.3 10 -11.2 9.7 -0.5 -0.1 -0.7 0.1 -0.4 0.6 0.3 0.5 -1 2.4 -2.9 4.2 l-3.5 3.4 0 -3.5z"/>
  <path d="M850.9 492.1 c8.9 -10 9.1 -10.1 9.1 -5.4 0 3.3 -0.7 4.6 -4.3 8.1 -3.3 3.2 -5 4.2 -7.6 4.2 l-3.3 0 6.1 -6.9z"/>
  <path d="M662 493.3 c0 -1.6 6.6 -7.4 7.5 -6.6 0.4 0.5 0.5 0.3 0.2 -0.3 -0.4 -0.7 4.4 -6 11.1 -12.3 l11.7 -11.2 0.3 3.2 c0.3 2.7 -0.4 4 -4.4 8 -2.6 2.6 -5.2 4.5 -5.8 4.2 -0.6 -0.3 -0.8 -0.2 -0.3 0.2 1 1.2 -8.3 10.5 -10.4 10.5 -1.1 0 -1.9 0.9 -2.1 2.3 -0.2 1.8 -1 2.3 -4 2.5 -2.1 0.2 -3.8 -0.1 -3.8 -0.5z"/>
  <path d="M866.9 475.1 c2.2 -2.6 4.7 -5.4 5.6 -6.1 1.8 -1.5 2 0 0.3 1.9 -1 1.1 -1 1.3 0 0.7 0.8 -0.5 1.2 0 1.2 1.4 0 3.2 -4.4 7 -8 7 l-3.2 0 4.1 -4.9z"/>
  <path d="M969 466.9 c0 -1.5 0.5 -5.1 1.1 -7.9 0.9 -4.3 1.4 -5 3.4 -5 l2.3 0 -1.5 6.8 c-0.9 3.7 -1.9 6.9 -2.4 7 -0.5 0.2 -0.7 0.7 -0.5 1.1 0.3 0.4 -0.1 0.8 -0.9 0.8 -1 0 -1.5 -1 -1.5 -2.8z"/>
  <path d="M723.7 462.2 c-1.6 -1.6 -2.7 -3.9 -2.7 -5.5 0 -2.1 -0.5 -2.7 -2.2 -2.7 -1.2 0 -3 -0.8 -4 -1.7 -1.4 -1.3 -2.1 -1.4 -3 -0.5 -1.4 1.4 -7.8 1.6 -7.8 0.2 0 -0.5 2.1 -2.5 4.6 -4.5 3.6 -2.7 5 -3.2 6 -2.4 0.8 0.6 1.1 1.6 0.7 2.2 -0.3 0.5 -0.2 0.7 0.4 0.4 0.5 -0.3 2.7 1.1 4.7 3.2 2.1 2.1 3.4 4.1 2.9 4.3 -0.4 0.3 -0.3 0.4 0.4 0.2 0.6 -0.1 3 2 5.3 4.7 l4.1 4.9 -3.4 0 c-2.3 0 -4.1 -0.8 -6 -2.8z"/>
  <path d="M879 462.4 c0 -0.3 0.6 -1.1 1.3 -1.8 0.6 -0.8 6.8 -7 13.5 -14 l12.4 -12.7 -4.4 -3.9 -4.3 -3.9 3.8 -0.1 c3.5 0 3.7 0.2 3.7 3 0 2.3 0.4 3 2 3 1.6 0 2 0.7 2 3.3 0 2.8 -1.2 4.4 -7.9 11 -4.4 4.2 -8.6 7.7 -9.5 7.7 -1 0 -1.6 0.9 -1.6 2.3 0 3.3 -4 6.7 -7.8 6.7 -1.8 0 -3.2 -0.3 -3.2 -0.6z"/>
  <path d="M973 447 c0 -2.2 0.5 -4 1 -4 0.6 0 1 -1.5 1 -3.2 0 -5.8 1 -7.8 3.7 -7.8 1.7 0 2.3 0.4 2 1.3 -0.3 0.8 -1.3 5 -2.3 9.5 -1.5 6.5 -2.3 8.2 -3.6 8.2 -1.4 0 -1.8 -0.8 -1.8 -4z"/>
  <path d="M979 423.3 c0 -6.2 1 -8.3 3.6 -8.3 1.4 0 2.2 0.5 2 1.3 -0.2 0.6 -1 3.3 -1.6 6 -1.5 5.8 -4 6.4 -4 1z"/>
  <path d="M888.1 417.3 l-7.5 -7 3.8 -0.1 c3.1 -0.1 4.5 0.5 7.8 3.6 3.3 3.2 3.9 4.3 3.6 7.2 l-0.3 3.3 -7.4 -7z"/>
  <path d="M982 410.7 c0 -3.4 3.5 -20.5 4.3 -21.4 0.3 -0.2 1.4 -0.3 2.4 -0.1 1.9 0.3 1.9 0.5 -0.1 9.6 -1.3 5.7 -2.5 9.2 -3.3 9.2 -0.7 0 -1.3 0.8 -1.3 1.8 0 1.4 0.2 1.5 1 0.2 0.7 -1.1 1 -1.2 1 -0.2 0 1.3 -2.3 4.2 -3.4 4.2 -0.3 0 -0.6 -1.5 -0.6 -3.3z"/>
  <path d="M876.1 405.6 c-1 -1.2 -0.9 -1.7 0.6 -2.4 1.5 -0.8 12 -4.2 13 -4.2 0.2 0 0.3 1.1 0.3 2.4 0 2.5 -1.6 3.6 -5.6 3.6 -1.3 0 -2.4 0.5 -2.4 1 0 1.5 -4.6 1.2 -5.9 -0.4z"/>
  <path d="M892.7 400.3 c-1.3 -1.2 -0.7 -2.2 1 -1.6 0.9 0.4 1.4 0.2 1 -0.3 -0.8 -1.4 19.9 -7.7 22.6 -6.9 1.4 0.4 1.8 0.3 0.9 -0.3 -0.8 -0.5 2.7 -2.1 10.5 -4.5 15.5 -4.7 17.2 -5.2 15.3 -3.7 -1.3 1 -1.2 1.1 0.3 0.6 1 -0.3 2.4 -0.6 3 -0.6 0.8 0 0.7 -0.3 -0.2 -0.9 -0.9 -0.6 1.8 -1.9 8.7 -4 5.6 -1.7 10.9 -3.4 11.9 -3.7 1.5 -0.5 1.6 -0.4 0.3 0.5 -1.3 0.9 -1.3 1.1 0.2 1.1 0.9 0 2.1 -0.7 2.5 -1.5 0.7 -1.2 20.2 -8 20.8 -7.3 0.4 0.4 0.8 12.7 0.6 15.1 0 0.9 -0.8 1.7 -1.6 1.7 -1.1 0 -1.5 -1.2 -1.5 -4.5 0 -2.5 0.5 -4.5 1 -4.5 0.6 0 1 -0.7 1 -1.5 0 -1.9 -0.2 -1.9 -8.5 1 -3.8 1.4 -8.2 2.5 -9.7 2.5 -1.6 0 -2.8 0.4 -2.8 0.9 0 0.6 -2.1 1.3 -4.7 1.7 -2.6 0.4 -5.3 1.3 -6.1 2 -0.7 0.8 -2.3 1.4 -3.6 1.4 -1.2 0 -2.6 0.4 -3.2 0.8 -0.5 0.5 -2.9 1.4 -5.4 2.2 -2.5 0.7 -6.4 1.9 -8.8 2.6 -2.3 0.8 -5.6 1.4 -7.2 1.4 -1.7 0 -3 0.4 -3 0.9 0 0.5 -6.3 3 -14 5.5 -13.1 4.3 -19.7 5.5 -21.3 3.9z"/>
  <path d="M993.4 372.5 c0.4 -2.4 1.6 -3 1.6 -0.7 0 1.2 -0.4 2.2 -0.9 2.2 -0.5 0 -0.8 -0.7 -0.7 -1.5z"/>
  <path d="M827.4 362.1 c-0.2 -0.2 -0.4 -2.4 -0.4 -4.8 0 -3.6 0.3 -4.3 1.9 -4.3 1.3 0 2.1 0.8 2.3 2.3 l0.3 2.2 57.3 0.3 c31.4 0.1 57.2 0.5 57.2 0.8 0 0.3 -0.7 1.2 -1.5 2 -1.2 1.3 -9.8 1.5 -59.1 1.7 -31.6 0.1 -57.8 0 -58 -0.2z"/>
  <path d="M957 361.9 c-2.9 -0.4 -3.6 -0.7 -2 -0.9 1.8 -0.2 2 -0.4 0.7 -0.7 -2.4 -0.6 -1.1 -2.3 1.9 -2.3 1.6 0 2.4 0.6 2.5 1.8 0 1.5 0.1 1.4 0.8 -0.2 0.7 -1.9 0.8 -1.9 1.3 0.2 0.8 2.8 0.3 2.9 -5.2 2.1z"/>
  <path d="M942.2 342.4 c-0.7 -0.8 -1.2 -2.8 -1 -4.5 l0.3 -3 4.5 4.5 c3.2 3.4 3.9 4.6 2.6 4.6 -1.1 0 -1.5 -0.5 -1 -1.2 0.6 -1 0.4 -1 -0.7 0 -1.7 1.6 -3.1 1.5 -4.7 -0.4z"/>
  <path d="M852.3 337.3 c-0.9 -1.9 -1.3 -9.4 -1.3 -25.5 0 -22.1 0.1 -22.8 2 -22.8 1.9 0 2 0.7 2 23.5 l0 23.5 10 0 c9.3 0 10 0.1 10 2 0 1.9 -0.7 2 -10.7 2 -10.7 0 -10.8 0 -12 -2.7z"/>
  <path d="M877 338 c0 -1.9 0.7 -2 9.5 -2 8.8 0 9.5 0.1 9.5 2 0 1.9 -0.7 2 -9.5 2 -8.8 0 -9.5 -0.1 -9.5 -2z"/>
  <path d="M886 317.9 l-18.5 -17.9 4.1 0 c3.2 0 4.6 0.6 7.2 3.3 1.8 1.8 3.2 3.8 3.2 4.4 0 0.6 0.9 1.3 2.1 1.6 1.1 0.3 2.3 1.5 2.6 2.6 0.3 1.2 1.2 2.1 1.9 2.1 0.8 0 1.4 0.7 1.4 1.5 0 0.8 0.6 1.5 1.3 1.5 1.6 0 7.7 6.2 7.7 7.8 0 0.7 0.5 1.2 1 1.2 2.4 0 5.1 3.8 4.8 6.8 -0.3 2.8 -1 2.3 -18.8 -14.9z"/>
  <path d="M583 299.5 c0 -21.8 0.1 -22.5 2 -22.5 1.9 0 2 0.7 2 22.5 0 21.8 -0.1 22.5 -2 22.5 -1.9 0 -2 -0.7 -2 -22.5z"/>
  <path d="M921 319.3 c-1.1 -1.3 -1.2 -1.7 -0.1 -2.1 1.1 -0.4 1.1 -0.6 0 -1.3 -0.7 -0.4 -1.1 -1 -0.8 -1.3 0.3 -0.3 2.1 1 3.9 2.9 3.3 3.5 3.4 3.5 0.9 3.5 -1.3 -0.1 -3.1 -0.8 -3.9 -1.7z"/>
  <path d="M827 302.5 c0 -10.8 0.1 -11.5 2 -11.5 1.9 0 2 0.7 2 11.5 0 10.8 -0.1 11.5 -2 11.5 -1.9 0 -2 -0.7 -2 -11.5z"/>
  <path d="M862.3 294.8 c-0.7 -0.8 -0.9 -1.9 -0.5 -2.3 0.4 -0.5 0.2 -0.5 -0.4 -0.2 -0.6 0.4 -2.2 -0.5 -3.4 -1.8 l-2.3 -2.5 3.7 0 c4 0 4.9 1.2 4.4 5.6 -0.3 2.3 -0.5 2.5 -1.5 1.2z"/>
  <path d="M826.8 285.4 c-0.2 -3.6 -0.7 -4.8 -2.1 -5 -0.9 -0.1 -1.5 0.2 -1.1 0.7 0.3 0.5 -41.2 0.8 -103.8 0.8 -57.4 -0.1 -102.7 -0.5 -100.8 -0.9 1.9 -0.4 2.7 -0.8 1.7 -0.9 -2.7 -0.2 -1 -2.1 1.8 -2.1 2.9 0 4.2 1.7 1.8 2.3 -1 0.3 1.1 0.5 4.7 0.5 3.6 0 5.7 -0.2 4.7 -0.5 -3.4 -0.9 -0.5 -2.3 4.8 -2.3 5.3 0 8.2 1.4 4.8 2.3 -1 0.3 1.1 0.5 4.7 0.5 3.6 0 5.7 -0.2 4.7 -0.5 -4.4 -1.2 0.4 -2.3 9.8 -2.3 9.4 0 14.2 1.1 9.8 2.3 -1 0.3 3.4 0.5 9.7 0.5 6.3 0 10.7 -0.2 9.7 -0.5 -2.4 -0.6 -1.1 -2.3 1.8 -2.3 2.9 0 4.2 1.7 1.8 2.3 -1 0.3 2 0.5 6.7 0.5 4.7 0 7.7 -0.2 6.7 -0.5 -2.4 -0.6 -1.1 -2.3 1.8 -2.3 2.9 0 4.2 1.7 1.8 2.3 -1 0.3 3.6 0.5 10.2 0.5 6.6 0 11.2 -0.2 10.2 -0.5 -2.4 -0.6 -1.1 -2.3 1.8 -2.3 2.9 0 4.2 1.7 1.8 2.3 -1 0.3 0 0.5 2.2 0.5 2.2 0 3.2 -0.2 2.2 -0.5 -2.4 -0.6 -1.1 -2.3 1.8 -2.3 2.9 0 4.2 1.7 1.8 2.3 -1 0.3 0.5 0.5 3.2 0.5 2.8 0 4.2 -0.2 3.2 -0.5 -2.4 -0.6 -1.1 -2.3 1.8 -2.3 2.9 0 4.2 1.7 1.8 2.3 -1 0.3 1.4 0.5 5.2 0.5 3.9 0 6.2 -0.2 5.2 -0.5 -3.3 -0.9 -0.6 -2.3 4.3 -2.3 4.9 0 7.6 1.4 4.3 2.3 -1 0.3 0.7 0.5 3.7 0.5 3.5 0 4.8 -0.2 3.6 -0.7 -3.6 -1.4 -0.2 -1.9 13.7 -2 13.6 -0.2 18.1 0.5 14.1 2 -1.3 0.5 -0.7 0.7 2.1 0.7 2.2 0 3.2 -0.2 2.2 -0.5 -3.9 -1 -0.1 -2.3 6.9 -2.3 5.9 0 7.4 0.3 7.4 1.5 0 0.8 0.9 1.5 2.1 1.5 1.8 0 2 0.5 1.7 4.2 -0.2 3.1 -0.8 4.4 -2 4.6 -1.4 0.3 -1.7 -0.6 -2 -4.4z m-39 -5.1 c-1 -0.2 -2.6 -0.2 -3.5 0 -1 0.3 -0.2 0.5 1.7 0.5 1.9 0 2.7 -0.2 1.8 -0.5z"/>
  <path d="M608.2 282.3 c0.3 -3.3 0.6 -3.8 3.2 -4.1 1.6 -0.2 3.3 0.1 3.9 0.7 0.8 0.8 0.6 1.1 -0.8 1.1 -1 0 -1.6 0.3 -1.2 0.6 0.6 0.6 -3.7 5.4 -4.8 5.4 -0.3 0 -0.5 -1.7 -0.3 -3.7z"/>
  <path d="M874 272 c0 -0.5 0.7 -0.6 1.7 -0.3 1.1 0.4 1.4 0.3 0.9 -0.5 -0.9 -1.6 -3.3 -1.5 -4 0.1 -0.4 0.6 -0.4 0.2 -0.2 -1 0.4 -2 0 -2.3 -3 -2.3 -2.7 0 -3.4 -0.4 -3.4 -2 0 -1.1 0.5 -2 1.1 -2 0.8 0 0.7 -0.5 -0.1 -1.5 -0.7 -0.9 -1.1 -1.8 -0.8 -2 0.2 -0.2 3.3 2.5 6.8 6 6.1 6.2 6.3 6.5 3.7 6.5 -1.5 0 -2.7 -0.4 -2.7 -1z"/>
  <path d="M853 257.9 c0 -0.8 -1.5 -0.9 -4.5 -0.5 -4.9 0.8 -8.2 -0.2 -4.9 -1.5 1.1 -0.5 -0.7 -0.7 -4.6 -0.7 -3.6 0 -5.7 0.2 -4.7 0.5 0.9 0.2 1.5 0.9 1.1 1.4 -0.7 1.2 -70.2 1 -70.9 -0.1 -0.3 -0.5 0.3 -1.1 1.2 -1.3 1 -0.3 -0.2 -0.5 -2.7 -0.5 -2.5 0 -3.7 0.2 -2.7 0.5 0.9 0.2 1.5 0.9 1.2 1.4 -0.8 1.2 -154.2 1.1 -155 -0.1 -0.4 -0.6 0.1 -1 1 -1 0.9 0 1.3 -0.5 1 -1 -0.4 -0.6 3.4 -1 10.7 -0.9 7.2 0.1 10.4 0.4 8.8 0.9 -2.2 0.7 -2 0.8 1.5 0.9 2.9 0 3.6 -0.2 2.5 -0.9 -1.1 -0.7 -0.6 -1 2.1 -1 1.9 0 4.1 0.6 4.8 1.3 1.1 1 1.3 0.9 0.7 -0.1 -0.9 -1.5 32.9 -1.8 33.9 -0.2 0.3 0.6 1.4 1 2.3 0.9 1.4 0 1.3 -0.2 -0.3 -0.9 -1.6 -0.7 -1.3 -0.9 1.8 -0.9 2.1 -0.1 3.7 0.4 3.7 1 0 0.8 0.5 0.8 1.5 -0.1 1.1 -1 1.8 -1 2.9 -0.1 1.1 0.9 1.5 0.9 1.9 -0.1 0.4 -1 0.8 -1 1.6 0.2 0.7 1 1.1 1.1 1.1 0.3 0 -0.7 1.1 -1.3 2.5 -1.3 1.4 0 2.5 0.6 2.5 1.3 0 0.9 0.2 0.9 0.8 -0.1 0.6 -0.9 4 -1.2 12 -1.1 6.2 0 11 0.4 10.7 0.8 -0.2 0.5 1 0.8 2.7 0.9 2.4 0.1 2.8 -0.2 1.8 -0.8 -1.3 -0.8 -1.3 -1 0 -1 0.9 0 2.2 0.6 2.9 1.3 1.1 1 1.3 1 0.7 -0.1 -0.9 -1.5 41.9 -1.8 42.9 -0.2 0.3 0.5 2.1 0.9 3.8 0.9 l3.2 -0.2 -3.5 -0.7 c-2 -0.4 5 -0.8 16.3 -0.8 15 -0.1 19.6 0.2 19.1 1.1 -0.5 0.8 -0.3 0.8 0.7 0 1.7 -1.6 38.4 -1.9 37.4 -0.3 -0.3 0.6 -0.1 1 0.4 1 0.6 0 1.1 -0.4 1.1 -1 0 -0.5 2.4 -1 5.4 -1 4 0 5.5 0.4 6 1.6 1.1 2.9 0.6 3.4 -2.9 3.4 -1.9 0 -3.5 -0.5 -3.5 -1.1z m-70.2 -2.6 c-1 -0.2 -2.6 -0.2 -3.5 0 -1 0.3 -0.2 0.5 1.7 0.5 1.9 0 2.7 -0.2 1.8 -0.5z m72 0 c-1 -0.2 -2.6 -0.2 -3.5 0 -1 0.3 -0.2 0.5 1.7 0.5 1.9 0 2.7 -0.2 1.8 -0.5z"/>
  <path d="M591.5 256.9 c-0.4 -0.5 0.2 -1 1.2 -1 1 -0.1 0.2 -0.5 -1.7 -0.9 -2.5 -0.5 -0.9 -0.7 5.5 -0.8 5.9 0 8.1 0.3 6.5 0.8 -1.8 0.6 -2 0.8 -0.7 0.9 1 0.1 1.6 0.5 1.2 1 -0.7 1.2 -11.3 1.2 -12 0z"/>
 </g>
 <g fill="#072941">
  <path d="M753.8 734.1 c-1.6 -1 -2.5 -2 -2.2 -2.4 0.3 -0.3 -0.4 -1 -1.5 -1.7 -1.3 -0.7 -2.1 -0.7 -2.1 -0.1 0 0.6 -0.7 0.8 -1.6 0.4 -1.3 -0.5 -1.3 -0.8 -0.2 -1.5 0.9 -0.7 0.8 -0.8 -0.7 -0.6 -2.4 0.3 -26.5 -12.2 -26.5 -13.8 0 -0.7 -0.7 -1.5 -1.6 -1.8 -2.2 -0.9 -2.6 -0.8 -1.9 0.5 0.4 0.6 -0.2 0.5 -1.4 -0.3 -1.2 -0.7 -2.1 -2 -2.2 -2.8 0 -0.9 -0.2 -1.1 -0.5 -0.3 -0.7 1.7 -7.2 -1.5 -8 -3.9 -0.3 -1.1 -1.5 -1.8 -2.9 -1.8 -3.2 0 -5.6 -1 -4.9 -2.1 0.5 -0.8 -1 -1.3 -2.9 -1 -1.3 0.2 -6.7 -3.2 -6.7 -4.2 0 -0.5 -0.7 -0.6 -1.6 -0.3 -0.8 0.3 -1.2 0.2 -0.9 -0.4 0.3 -0.6 0.1 -1.1 -0.4 -1.1 -0.6 -0.1 -1.5 -0.2 -1.9 -0.3 -2.6 -0.4 -11 -5 -10.6 -5.8 0.3 -0.5 0 -0.8 -0.7 -0.7 -1.7 0.3 -6.9 -2.1 -6.9 -3.2 0 -1.4 -6 -4 -7.2 -3.3 -0.7 0.4 -0.8 0.3 -0.4 -0.4 0.4 -0.7 0 -1.2 -1 -1.2 -2.2 0 -32.6 -15.9 -33.9 -17.7 -0.9 -1.3 -2.8 -1.9 -6 -2.2 -0.5 -0.1 -0.3 -0.6 0.5 -1.2 1.2 -0.9 1.2 -1 -0.4 -0.5 -1.1 0.4 -4.4 -0.8 -8.6 -3.1 -8.9 -4.8 -9.4 -6.6 -3.1 -12.8 2.5 -2.4 5.7 -5.9 7 -7.6 1.3 -1.7 3.5 -3.5 4.8 -4 1.4 -0.5 2.7 -1.8 3 -2.9 0.3 -1.1 0.9 -2 1.4 -2 0.5 0 3.9 -3.1 7.5 -7 3.7 -3.8 7 -6.8 7.4 -6.5 0.4 0.3 5.8 -4.7 11.9 -11 6.1 -6.4 11.3 -11.5 11.7 -11.4 1 0.2 6.4 -5.3 5.9 -6.1 -0.2 -0.4 0.7 -1.3 2.1 -2 1.3 -0.8 3.6 -2.9 5 -4.7 1.4 -1.8 3.1 -3.3 3.8 -3.3 0.7 0 2.6 -1.5 4.3 -3.2 1.6 -1.8 4.1 -4.2 5.4 -5.4 1.3 -1.1 3 -3 3.8 -4.2 0.8 -1.1 1.9 -1.8 2.4 -1.5 0.6 0.3 0.7 0.1 0.4 -0.4 -0.4 -0.6 0 -1.6 0.8 -2.3 0.8 -0.7 1.5 -0.9 1.5 -0.4 0 0.4 1.7 -0.9 3.8 -2.9 2.1 -2.1 4.2 -3.4 4.7 -3 0.4 0.5 0.5 0.3 0.2 -0.3 -0.8 -1.5 4.8 -7.4 7 -7.4 1.4 0 1.5 -0.2 0.4 -0.9 -1.1 -0.7 -1.1 -1 0 -1.7 3 -1.9 4.8 -1.2 8.4 3.1 2 2.5 3.9 4.4 4.3 4.2 0.4 -0.1 0.8 0.3 1 0.8 0.6 1.7 3.4 4.5 4.2 4 0.4 -0.2 2.6 1.8 4.9 4.5 2.4 2.8 4.7 4.7 5.3 4.4 0.6 -0.4 0.8 -0.3 0.5 0.3 -0.6 0.9 7.7 9.9 8.5 9.2 0.2 -0.2 2.6 1.6 5.3 4 2.8 2.4 4.1 3.8 3 3 -1.1 -0.7 -0.8 0 0.9 1.9 1.6 1.7 3.2 2.9 3.6 2.7 0.7 -0.4 4.8 3.8 9.1 9.3 0.6 0.7 1.4 1 1.8 0.7 0.5 -0.2 1.7 0.5 2.7 1.8 l1.9 2.2 -2.5 -1.9 c-1.4 -1.1 -0.7 -0.1 1.5 2.1 2.2 2.2 4.3 3.9 4.6 3.7 0.4 -0.2 2.2 1.3 4 3.4 1.8 2 3.7 3.6 4.2 3.4 0.5 -0.1 0.6 0.2 0.3 0.7 -0.6 1 1.8 3.4 2.6 2.6 0.2 -0.3 1.5 0.7 2.9 2.2 1.3 1.4 1.7 2.3 0.9 1.8 -1.1 -0.6 -1.2 -0.5 -0.4 0.4 0.6 0.7 1.9 1.3 2.8 1.5 0.9 0.1 1.7 0.6 1.7 1.2 0.1 1.5 2.1 3.4 2.9 2.9 0.9 -0.6 8 7.6 8 9.1 0 0.6 0.9 1 1.9 1.1 1.1 0.1 4.1 2.4 6.8 5 2.6 2.7 5.6 5.2 6.5 5.6 1.2 0.4 1.5 1.2 1.1 2.4 -0.6 1.6 -0.5 1.7 1.2 0.3 1 -0.8 1.6 -1 1.2 -0.4 -0.7 1.2 1.6 3.8 2.5 2.8 0.3 -0.3 2 1.3 3.8 3.6 1.7 2.2 3.6 3.8 4 3.5 0.5 -0.3 1.2 0 1.6 0.6 0.5 0.8 0.2 1 -0.7 0.5 -0.8 -0.4 -0.5 -0.1 0.5 0.6 1.1 0.7 3 2.3 4.2 3.6 1.1 1.2 2.6 2.2 3.2 2.2 0.6 0 2 1.4 3.2 3 1.2 1.7 2.7 3 3.4 3 1.7 0 4.8 3.5 3.9 4.3 -0.3 0.4 0.3 0.7 1.4 0.7 2.1 0 5.6 3.3 6.6 6.3 0.4 0.9 1.1 1.7 1.7 1.7 0.6 0 0.8 -0.6 0.4 -1.2 -0.4 -0.7 0.5 -0.2 1.9 1.1 1.5 1.3 2.9 3.3 3.3 4.3 0.3 1 0.9 1.6 1.3 1.4 0.4 -0.3 0.7 0.6 0.7 1.8 0 1.6 -0.9 2.6 -2.8 3.4 -1.6 0.6 -2.6 0.6 -2.2 0.1 0.3 -0.5 0 -0.9 -0.5 -0.9 -0.6 0 -1.1 0.8 -1.1 1.7 0 0.9 -0.3 1.3 -0.6 1 -0.4 -0.3 -1.6 0 -2.6 0.8 -1.1 0.7 -2.7 1.1 -3.5 0.8 -0.8 -0.3 -1.9 0 -2.4 0.8 -0.4 0.8 -1.9 1.4 -3.1 1.4 -2.8 0.1 -11.5 4.1 -12 5.5 -0.2 0.6 -2.6 1.5 -5.3 1.9 -2.8 0.5 -4.3 0.9 -3.5 1 0.9 0.1 0.4 0.8 -1.2 1.7 -1.5 0.8 -3.9 1.2 -5.2 1 -1.7 -0.3 -2.3 0 -2 0.8 0.2 0.6 -1 1.7 -2.7 2.3 -2.8 1.1 -2.9 1 -1.7 -0.5 0.7 -0.9 -0.2 -0.4 -2.1 1.1 -2.2 1.8 -3.7 2.4 -4.5 1.8 -1.3 -1 -5.6 0.3 -5.6 1.8 0 1.3 -5.5 4.2 -6.4 3.4 -0.3 -0.4 -0.6 -0.1 -0.6 0.6 0 0.8 -0.7 1.1 -1.5 0.7 -0.8 -0.3 -1.5 -0.1 -1.5 0.4 0 0.5 -0.8 0.9 -1.7 0.9 -3.9 0.1 -5.2 0.5 -5 1.3 0.1 0.5 -1.3 1.5 -3.1 2.3 -1.8 0.8 -3.1 1.1 -2.8 0.6 0.3 -0.4 -0.1 -0.8 -0.8 -0.8 -0.8 0 -1.2 0.5 -1 1.1 0.2 0.6 -4.5 3 -10.4 5.4 -5.9 2.4 -11.3 4.6 -12.1 4.9 -0.9 0.4 -1.2 0.2 -0.7 -0.5 0.4 -0.7 -0.1 -1 -1.4 -0.9 -1.1 0.1 -2 0.5 -2 0.9 0 1.2 -1.2 0.9 -4.2 -1.1z m13.4 -28.9 c0.7 -0.7 2.4 -1.2 4 -1.2 1.5 0 3.1 -0.7 3.6 -1.6 0.7 -1.2 1.1 -1.3 1.7 -0.5 0.5 0.9 1.1 0.6 2.2 -0.9 0.8 -1.2 2.1 -1.9 2.8 -1.6 0.8 0.3 1.9 -0.2 2.6 -1 0.6 -0.8 1.7 -1.3 2.3 -1.2 0.6 0.1 2.4 -0.6 3.9 -1.6 1.5 -1 3 -1.6 3.4 -1.2 0.4 0.3 1.3 0 2.2 -0.8 2.1 -1.9 11.4 -5.9 10.6 -4.6 -0.9 1.5 7.8 -2 9.2 -3.7 0.8 -1 1.3 -1.1 1.8 -0.3 0.5 0.8 1.2 0.4 2.2 -1 1 -1.4 2.2 -2 3.4 -1.7 1 0.3 2.4 -0.2 3.1 -1 1 -1.3 0.7 -1.9 -1.7 -3.9 -1.7 -1.3 -3.9 -3.2 -5.1 -4.4 -1.2 -1.1 -2.4 -2 -2.8 -2 -0.3 0 -4 -3.4 -8.2 -7.5 -4.1 -4.2 -7.9 -7.3 -8.4 -7 -0.5 0.3 -1.2 0 -1.6 -0.6 -0.5 -0.8 -0.3 -0.9 0.7 -0.4 1.2 0.8 1.2 0.6 0 -0.8 -0.7 -0.9 -1.8 -1.7 -2.3 -1.7 -0.6 0 -1.9 -1.1 -3 -2.5 -1 -1.3 -2.5 -2.4 -3.1 -2.2 -0.7 0.1 -1.1 -0.3 -1 -1 0.3 -1.4 -8.4 -8.9 -9.8 -8.5 -0.5 0.1 -0.8 -0.1 -0.7 -0.6 0.3 -0.9 -3.7 -6.2 -4.7 -6.2 -0.3 0 -0.3 0.6 0 1.3 0.6 1 -2.1 -1.9 -5.4 -5.8 -1.9 -2.3 -8.1 -7.5 -8.7 -7.3 -0.4 0.2 -1.2 -0.6 -1.8 -1.7 -0.6 -1 -2.2 -2.8 -3.6 -3.9 -1.4 -1.1 -4.7 -4.1 -7.5 -6.6 -2.7 -2.5 -6.6 -5.6 -8.6 -6.9 -1.9 -1.3 -4 -3.3 -4.5 -4.4 -0.5 -1.1 -1.8 -2.5 -2.9 -3.1 -1.1 -0.6 -2.6 -1.9 -3.3 -2.9 -0.7 -0.9 -1.8 -1.4 -2.4 -1.1 -0.6 0.4 -0.8 0.2 -0.5 -0.3 0.7 -1.1 -1.2 -3 -4.7 -4.8 -1.1 -0.6 -2.7 -2.3 -3.4 -3.8 -0.7 -1.5 -1.9 -2.7 -2.7 -2.7 -0.7 0 -1.5 -0.6 -1.8 -1.2 -0.5 -1.5 -7.7 4.9 -7.7 6.9 0 0.7 -0.8 1.3 -1.8 1.3 -1 0 -2.5 0.9 -3.5 2 -0.9 1.1 -1.4 2 -1 2 0.3 0 -0.2 0.9 -1.2 2 -1 1.1 -2.3 2 -3 2 -0.6 0 -2.4 1.4 -4 3 -1.6 1.7 -2.5 3 -2 3 0.4 0 0 0.9 -1 2 -1 1.1 -2.1 1.7 -2.6 1.5 -0.4 -0.3 -3.1 2.2 -6 5.6 -3 3.3 -5.5 5.7 -5.6 5.2 -0.4 -1 -16 14.3 -17.9 17.4 -0.6 1 -2.4 2.4 -3.9 3.2 -2.6 1.2 -6.9 5.5 -8.7 8.6 -0.5 0.7 1.7 2.6 6.1 5.1 3.7 2.1 6.9 4.4 7 4.9 0.1 0.6 1.1 1 2.1 0.9 1.5 0 1.7 0.2 0.8 1.3 -0.8 1.1 -0.7 1.2 0.6 0.7 2.2 -0.8 11.8 3.5 10.9 4.9 -0.4 0.6 0 0.8 1.1 0.4 1.1 -0.4 1.5 -0.3 1 0.4 -0.4 0.6 0 1.5 0.7 2 1.9 1.2 3.2 1.1 2.4 -0.1 -0.4 -0.6 2.7 0.6 6.9 2.7 4.1 2 7.4 4.2 7.3 4.7 -0.1 0.6 0.6 1 1.6 1 0.9 -0.1 1.7 0.2 1.7 0.7 0 0.5 0.3 0.8 0.8 0.8 1.9 -0.3 3.3 0.3 5.1 2.3 1.1 1.2 3.1 2.2 4.3 2.3 1.3 0.1 2.2 0.8 2 1.5 -0.2 0.8 0.3 1 1.3 0.7 0.8 -0.4 1.5 -0.2 1.5 0.3 0 0.6 0.7 1 1.6 1 0.8 0 1.3 0.4 1 0.9 -0.3 0.5 0.1 1.2 1 1.5 0.8 0.3 1.2 0.2 0.9 -0.4 -1.1 -1.8 0.8 -1 7.8 2.8 3.7 2.1 6.4 4.2 6 4.7 -0.5 0.4 -0.2 0.5 0.4 0.1 0.7 -0.4 2.1 -0.2 3 0.3 1 0.6 1.4 1.1 0.9 1.1 -1.7 0 2.9 2.9 4.7 3 1.7 0 13.7 5.6 14.7 6.9 0.3 0.3 2.5 1.6 5 2.8 4.7 2.3 10.2 2.5 12.2 0.5z"/>
  <path d="M914.6 671.5 c-0.8 -0.9 -1.9 -1.5 -2.3 -1.4 -2.1 0.4 -3.3 -0.2 -2.7 -1.3 0.4 -0.6 0.3 -0.8 -0.4 -0.4 -0.6 0.3 -2.6 -0.7 -4.5 -2.4 -1.9 -1.6 -4 -3 -4.6 -3 -0.6 0 -1.1 -0.5 -1.1 -1.1 0 -0.5 -0.5 -0.7 -1.2 -0.3 -0.6 0.4 -0.8 0.3 -0.4 -0.4 0.6 -1 -4.3 -5.2 -6.2 -5.2 -0.6 0 -2.7 -2 -4.8 -4.5 -2 -2.5 -4.2 -4.5 -4.9 -4.5 -0.6 0 -2 -0.9 -3 -2 -1 -1.1 -1.5 -2 -1 -2 0.4 0 -0.4 -0.9 -1.8 -2 -1.4 -1.1 -3 -2 -3.6 -2 -0.6 0 -1.8 -1.1 -2.7 -2.5 -0.9 -1.4 -2.8 -3.1 -4.3 -3.8 -1.4 -0.7 -2.4 -1.5 -2.1 -1.9 0.6 -0.7 -4.3 -4.8 -5.9 -4.8 -0.5 0 -2.5 -1.8 -4.2 -4 -1.8 -2.2 -3.7 -4 -4.2 -4 -1.4 0 -6.7 -4.7 -6 -5.4 0.4 -0.3 -0.1 -0.6 -1 -0.6 -0.8 0 -2.5 -1.3 -3.7 -3 -1.2 -1.6 -2.6 -2.9 -3.3 -2.7 -0.6 0.1 -1.1 -0.4 -1.2 -1.2 0 -0.8 -0.9 -1.9 -2 -2.5 -1.1 -0.6 -2.3 -1.5 -2.7 -2.1 -1.1 -1.4 -1 -2.7 0.1 -2 0.5 0.3 1.2 -0.4 1.6 -1.5 0.4 -1.1 1 -1.8 1.5 -1.5 0.4 0.3 1.4 -0.3 2.1 -1.2 1.2 -1.4 1.2 -1.6 0 -0.8 -1 0.5 -1.2 0.4 -0.7 -0.4 0.4 -0.6 1.1 -0.9 1.6 -0.6 0.4 0.3 1.9 -0.4 3.1 -1.5 1.3 -1.1 2 -1.9 1.5 -2 -2.1 0 3.9 -5 6.1 -5 3.8 0 11.8 5.4 10.7 7.1 -0.3 0.5 0.4 0.9 1.5 0.9 1.1 0 3 1.4 4.2 3.3 2.6 3.7 4 4.8 5.1 4.1 0.4 -0.3 2 1.4 3.5 3.7 2.4 3.6 6.4 6.5 8.6 6.1 0.4 -0.1 0.6 0.1 0.6 0.5 -0.4 2.3 0.3 3.5 1.6 3 0.9 -0.4 4.1 2.1 8.8 6.8 4.1 4.1 7.9 7.5 8.4 7.5 1.4 0 4.4 3.5 3.6 4.3 -0.3 0.4 0.1 0.7 1 0.7 1 0 1.7 -0.4 1.7 -0.9 0 -0.5 0.7 -1.7 1.6 -2.5 0.8 -0.9 1.1 -1.6 0.5 -1.6 -0.6 0 -1.1 -0.7 -1.1 -1.5 0 -0.8 0.5 -1.5 1 -1.5 0.6 0 0.8 -1.8 0.6 -4.5 -0.3 -3.1 -0.1 -4.3 0.6 -3.9 0.8 0.5 0.9 -0.7 0.5 -3.9 -0.4 -3.1 -0.3 -4.7 0.4 -4.7 0.7 0 1 -2 0.8 -5.2 -0.2 -2.9 0 -5.8 0.4 -6.5 0.4 -0.6 0.6 -5.2 0.4 -10.2 -0.2 -5 0 -8.8 0.4 -8.5 1.3 0.8 1.1 -11.1 -0.2 -13.9 -0.6 -1.4 -2.2 -3.1 -3.5 -3.8 -1.3 -0.7 -2.4 -1.5 -2.4 -1.9 0 -0.4 -1.2 -0.6 -2.7 -0.4 -1.6 0.2 -2.1 0.1 -1.2 -0.2 1.1 -0.3 1.5 -1.3 1.1 -3 -0.3 -1.9 0.5 -3.3 3.6 -6.2 3.4 -3.2 6.2 -7 6.2 -8.5 0 -1 -6.3 0.1 -7 1.3 -0.5 0.8 -1.6 0.9 -3 0.5 -1.6 -0.5 -1.9 -1 -1 -1.5 0.6 -0.4 1 -1.8 0.8 -3.1 -0.2 -1.8 0.6 -3.1 3.7 -5.4 2.2 -1.6 4.4 -3 5 -3 0.5 -0.1 0.9 -0.6 0.8 -1.3 -0.2 -0.7 0.2 -1.1 0.9 -0.9 0.7 0.1 1.2 -0.2 1.3 -0.8 0.1 -1.9 1.6 -3.5 2.7 -2.9 0.7 0.4 0.8 0.2 0.4 -0.4 -0.9 -1.5 5 -10.3 6.7 -9.9 0.7 0.1 1.1 -0.2 1 -0.8 -0.1 -0.5 0.8 -1.1 2 -1.1 1.2 -0.1 4.1 -0.7 6.4 -1.4 3.6 -1.1 4.4 -1 5.8 0.4 1.5 1.5 1.5 1.6 -0.2 1.6 -1.7 0.1 -1.7 0.2 0.1 1.5 1.4 1.1 1.6 1.5 0.5 1.5 -1 0.1 -0.9 0.3 0.4 1.1 1.4 0.8 1.7 2.4 1.7 7.9 0 4.7 -0.4 6.9 -1.1 6.7 -1.3 -0.2 -1.5 19.8 -0.3 26.7 0.4 2.1 0.3 3.6 -0.2 3.3 -0.5 -0.3 -1.5 0.1 -2.2 0.9 -0.7 0.8 -0.8 1.4 -0.2 1.4 0.6 0 1 1.9 0.9 4.3 -0.1 2.3 0.2 6.1 0.6 8.5 0.6 3.3 0.5 4.2 -0.7 4.2 -1 0 -1.5 1.4 -1.6 4.8 -0.2 3.4 0 4.3 0.8 3.2 0.8 -1.3 1 -1.3 1 0.3 0 0.9 -0.5 1.7 -1.1 1.7 -0.6 0 -1 2.3 -1 5.8 0.1 3.1 -0.1 8.4 -0.4 11.7 -0.2 3.3 -0.4 7.3 -0.4 8.9 0 1.5 -0.6 3.4 -1.2 4.2 -0.6 0.8 -0.8 2.6 -0.4 4.5 0.5 2.1 0.4 2.9 -0.4 2.5 -0.7 -0.5 -1 0.6 -0.8 3.1 0.1 2.9 -0.1 3.7 -1.3 3.5 -1.2 -0.3 -1.3 -0.1 -0.2 0.9 1.5 1.6 1.6 4.1 0 5.7 -0.6 0.6 -1.3 2 -1.5 2.9 -1 4.6 -1.1 6.3 -0.2 6.3 0.5 0 0.9 0.7 0.9 1.6 0 0.8 -0.4 1.3 -0.9 0.9 -0.5 -0.3 -1 0.9 -1 2.7 0 5.1 -0.5 7.8 -1.2 7.8 -0.8 0 -2 3.5 -2.3 6.7 -0.2 3 -1.5 4.1 -5.3 4.7 -2.1 0.4 -3.7 0.1 -4.7 -0.9z"/>
  <path d="M584.6 603.2 c-0.3 -0.5 -0.5 -44.3 -0.5 -97.5 0.1 -53.1 -0.2 -97 -0.5 -97.6 -0.4 -0.6 -0.2 -1.9 0.4 -3 0.5 -1.1 0.6 -2.2 0.2 -2.5 -0.5 -0.3 -0.6 -2.7 -0.3 -5.3 0.4 -2.6 0.3 -7 0 -9.8 -0.3 -2.7 -0.2 -5.8 0.2 -6.7 0.6 -1 0.5 -1.9 -0.1 -2.3 -0.6 -0.4 -0.7 -1.1 -0.4 -1.7 0.8 -1.3 0.8 -39.9 -0.1 -48.6 -0.3 -3.7 -0.2 -8.8 0.3 -11.4 0.5 -2.7 0.7 -4.8 0.3 -4.8 -0.3 0 -0.5 -2.8 -0.4 -6.2 0.3 -12.8 0.2 -21.7 -0.4 -35.8 l-0.5 -14.5 8.6 0.2 c6.3 0.2 8.6 -0.1 8.6 -1 0 -0.9 0.2 -0.9 0.8 0.1 0.9 1.4 12.7 1.3 15 -0.1 0.6 -0.5 1.2 -0.5 1.2 0 0 0.4 3.6 0.9 8 1 5 0.2 7.9 -0.1 7.5 -0.7 -0.3 -0.6 -0.2 -1 0.4 -1 0.5 0 1.2 0.4 1.5 0.8 0.3 0.5 1.7 0.7 3.3 0.6 4.9 -0.5 7.1 -0.5 41 -0.1 18.3 0.2 33 0 32.7 -0.4 -0.2 -0.4 0.5 -0.7 1.6 -0.6 1.1 0.1 2 0.4 2 0.7 0 0.3 2.7 0.6 6 0.6 3.3 0 6 -0.4 6 -0.9 0 -0.5 1.3 -0.6 2.9 -0.2 5.4 1.2 45.5 1.4 46.8 0.3 0.9 -0.7 1.3 -0.7 1.3 0.1 0 0.6 1.4 1.1 3 1.1 1.7 0 3 -0.5 3 -1 0 -0.7 0.6 -0.7 1.8 -0.2 0.9 0.5 4.4 0.7 7.7 0.5 3.3 -0.2 6.5 -0.4 7 -0.3 0.9 0 8.1 0 18 0 2.2 0 5.4 0.2 7 0.4 1.7 0.2 3.6 -0.1 4.3 -0.7 0.9 -0.7 1.6 -0.7 2.4 0.1 1.6 1.6 12.1 1.5 13.7 0 1.1 -1.1 1.3 -1.1 0.7 0 -0.4 0.6 -0.2 1.2 0.3 1.2 0.6 0 1.1 -0.4 1.1 -1 0 -0.5 0.7 -1 1.6 -1 0.8 0 1.2 0.5 0.9 1 -0.4 0.6 1 1 3.5 1 2.5 0 3.9 -0.4 3.5 -1 -0.3 -0.6 -0.1 -1 0.4 -1 0.6 0 1.1 0.5 1.1 1.1 0 0.5 0.5 0.7 1.1 0.3 1.2 -0.7 8.9 6.4 8.9 8.3 0 0.7 0.6 1.3 1.3 1.3 2.1 0 5.5 4.2 4 4.7 -2 0.7 -1.5 1.9 0.7 2 1.3 0.1 1.8 -0.2 1.4 -1 -0.4 -0.7 1.2 0.6 3.4 2.7 2.3 2.2 3.8 4.4 3.5 4.9 -0.3 0.6 -0.2 0.7 0.4 0.4 1.1 -0.7 17.6 15.6 16.8 16.6 -0.3 0.4 -0.2 0.5 0.2 0.2 0.4 -0.3 5.5 4.3 11.4 10.1 8.4 8.4 10.6 11.1 9.9 12.4 -0.6 1.2 -0.4 1.6 1.1 1.7 1.2 0.1 1.7 -0.3 1.3 -1 -0.4 -0.7 1.4 0.8 4 3.3 4.9 4.7 5.5 5.6 3 4.6 -0.9 -0.3 -1.2 -0.2 -0.9 0.5 0.4 0.6 1.3 0.8 2 0.5 1.5 -0.6 8.8 6.7 7.8 7.8 -0.5 0.4 -0.3 0.6 0.3 0.4 0.6 -0.2 5.3 3.9 10.5 8.9 8.7 8.5 9.5 9.6 9.1 12.5 l-0.4 3.3 -63.9 0 c-35.1 0 -63.9 0.3 -63.9 0.6 0 0.4 -0.7 1 -1.6 1.3 -1.2 0.4 -1.5 0.2 -1 -0.9 0.3 -0.9 0 -1.5 -0.9 -1.5 -2.2 0 -1.7 -59.8 0.5 -62.6 0.8 -1 1 -1.5 0.4 -1.1 -0.7 0.4 -1.4 -0.2 -1.8 -1.6 -0.9 -3.4 -0.7 -7.9 0.3 -7.3 1.1 0.7 0.8 -0.8 -0.7 -4.5 l-1 -2.6 -106.6 -0.1 -106.6 -0.1 -1.3 2.2 c-1.1 1.8 -1.3 25.8 -1.1 127.7 0.1 69 0.3 126.7 0.3 128.1 0.1 4.1 3.9 4.7 5.3 0.8 0.5 -1.6 1.6 -2.9 2.4 -2.9 0.7 0 1.8 -0.9 2.4 -2 0.6 -1.2 1.6 -1.8 2.3 -1.4 0.7 0.4 0.9 0.3 0.4 -0.1 -0.9 -1.1 4.3 -6.6 5.5 -5.9 0.5 0.3 0.7 0 0.6 -0.8 -0.2 -0.7 0.3 -1.2 1 -1 0.8 0.1 1.1 -0.2 0.8 -0.6 -0.6 -1 2.3 -3.9 5.5 -5.6 1.2 -0.6 2 -1.4 1.8 -1.8 -0.9 -1.4 4.3 -5.6 6.7 -5.3 1.9 0.2 2.2 -0.1 1.3 -1.1 -0.8 -1 1.1 -3.5 8.2 -10.8 5.1 -5.2 9.6 -9.3 10.1 -9 0.4 0.3 1.3 -0.7 1.8 -2.2 0.6 -1.5 1.4 -2.4 1.7 -2 1 0.9 13.3 -11.5 12.6 -12.7 -0.3 -0.6 -0.2 -0.7 0.4 -0.4 1.3 0.8 6.6 -4.7 5.6 -5.7 -0.5 -0.4 -0.3 -0.6 0.2 -0.4 0.6 0.1 1.1 0 1.3 -0.4 0.6 -1.3 17.4 -17.3 18.2 -17.3 0.4 0 2 -1.3 3.4 -2.8 2.2 -2.4 2.9 -2.7 4.2 -1.6 0.8 0.6 1.2 1.4 1 1.7 -0.3 0.2 1.6 2.1 4.1 4 2.7 2 4.1 3.8 3.4 4 -0.8 0.3 -0.4 1 1.1 2 1.3 0.9 2.6 1.6 3.1 1.4 0.4 -0.1 0.6 0.2 0.5 0.7 -0.2 0.5 1.8 2.8 4.5 5.1 2.6 2.3 4.5 4.5 4.3 4.9 -0.7 1 0.3 2.1 7.1 8 3.5 3 6 5.7 5.8 6.1 -0.3 0.5 2.4 3.4 6 6.5 3.5 3.1 6.3 6.2 6.2 6.8 -0.1 0.7 0.4 1.1 1.1 0.9 0.8 -0.1 1.1 0.2 0.8 0.7 -0.3 0.5 0.8 2.1 2.5 3.5 1.7 1.4 2.7 2.6 2.3 2.6 -0.4 0 0.1 0.9 1.1 2 1 1.1 2.1 1.7 2.5 1.5 0.9 -0.6 2.4 2.5 2.1 4 -0.2 0.6 0.1 0.7 0.5 0.2 1 -1 6.4 4.2 5.9 5.7 -0.2 0.6 2.5 3.5 6 6.5 3.6 3 6.3 5.7 6 5.9 -0.8 0.8 1.6 3.2 2.6 2.6 0.5 -0.3 0.6 0.2 0.3 1 -0.3 0.9 -0.2 1.6 0.4 1.6 1.7 0 7.3 5.1 6.6 6.1 -1.3 2.1 2.2 0.7 4.4 -1.8 1.3 -1.6 2 -2.2 1.6 -1.4 -0.5 0.9 -0.3 1.2 0.4 0.7 0.7 -0.4 1.2 -1.3 1.2 -2 0 -0.8 0.8 -2 1.7 -2.7 1.1 -1 1.4 -1 0.9 -0.1 -0.4 0.6 -0.2 1.2 0.3 1.2 0.6 0 1.1 -0.6 1.1 -1.4 0 -0.7 0.7 -1.9 1.5 -2.6 0.8 -0.7 1.2 -1.6 0.9 -2.1 -0.3 -0.5 0.1 -0.9 0.9 -0.9 0.8 0 2.3 -1.2 3.2 -2.7 1 -1.6 3.9 -4.8 6.4 -7.3 2.5 -2.4 4.5 -4.8 4.3 -5.3 -0.1 -0.5 0.2 -0.6 0.8 -0.2 1.1 0.7 9 -7.3 9 -9.2 0 -0.6 2.5 -3.3 5.5 -5.9 3 -2.6 5.1 -5.2 4.8 -5.8 -0.3 -0.6 -0.2 -0.8 0.2 -0.3 1 0.8 5.5 -3.1 5.5 -4.8 0 -0.7 2.3 -3.3 5 -5.9 2.8 -2.6 5 -5.2 5 -5.8 0 -0.6 0.3 -0.9 0.6 -0.5 0.7 0.7 2.8 -1.2 3.5 -3 0.5 -1.5 10.9 -12.6 10.9 -11.7 0 1.2 5 -3.8 5 -5 0 -0.6 2.9 -3.8 6.5 -7 3.5 -3.3 6.1 -6.4 5.8 -6.9 -0.3 -0.6 -0.1 -0.7 0.4 -0.4 1.3 0.8 4.6 -2.7 3.6 -3.8 -0.5 -0.4 -0.2 -0.5 0.5 -0.1 0.7 0.4 1.4 0.1 1.7 -0.7 0.6 -1.4 -19.4 -22.7 -21.2 -22.7 -0.5 0 -2.8 -1.9 -5.1 -4.3 -4.1 -4.2 -4.7 -6.2 -1.4 -5 1.1 0.5 1.3 0.3 0.7 -0.8 -0.8 -1.2 -0.6 -1.2 0.9 0 1.5 1.2 1.7 1.2 1.4 0 -0.2 -0.8 0.5 -1.4 1.7 -1.4 1.1 0 3.6 -0.7 5.5 -1.6 1.9 -0.9 5 -1.6 6.8 -1.4 2.3 0.1 3.1 -0.2 2.8 -1.1 -0.3 -0.8 0 -1.1 0.8 -0.8 0.7 0.3 4.8 -0.6 9.2 -2 4.3 -1.3 9.2 -2.7 10.9 -3.1 1.6 -0.4 3.3 -1.2 3.7 -1.8 0.4 -0.7 1.1 -1.2 1.5 -1.3 0.4 0 2.1 -0.6 3.6 -1.2 1.5 -0.7 3.1 -1.1 3.5 -1.1 2.5 0.4 5.2 -0.3 4.7 -1.1 -0.3 -0.5 0 -0.7 0.8 -0.4 0.8 0.3 1.8 0.1 2.2 -0.5 0.3 -0.6 1.6 -0.9 2.9 -0.5 2.8 0.7 7.9 -1.2 7 -2.7 -0.4 -0.8 0 -0.8 1.5 0 1.8 1 2 0.9 1.4 -0.5 -0.5 -1.4 -0.2 -1.6 1.5 -1.2 1.1 0.3 2.3 0.1 2.6 -0.6 0.3 -0.6 0.5 -0.5 0.5 0.3 0.1 1.2 0.4 1.1 1.4 -0.2 0.6 -0.9 2.1 -1.8 3.2 -2 1.1 -0.1 2.5 -0.6 3.2 -1 0.6 -0.4 1.8 -0.4 2.7 -0.1 0.9 0.3 2.4 0.3 3.4 -0.1 0.9 -0.5 2.6 -1 3.7 -1.2 1 -0.2 2.3 -0.9 2.7 -1.6 0.4 -0.6 1.9 -1.3 3.4 -1.4 1.4 -0.1 3.6 -0.8 4.7 -1.5 1.2 -0.8 3.5 -1.5 5.1 -1.6 l2.8 -0.2 -0.4 10.3 c-0.3 8.2 -0.8 11 -2.3 13.3 -2.3 3.4 -2.5 4.6 -1 5.7 0.7 0.6 0.6 1 -0.1 1.3 -0.7 0.3 -1 1.3 -0.7 2.3 0.3 1.1 -0.3 2.4 -1.5 3.2 -1.4 1.1 -1.9 2.7 -2 6.9 -0.2 7.7 -0.5 10 -1.3 10 -0.3 0 -0.9 2.6 -1.2 5.8 -0.7 6.1 -2.6 11.2 -4.2 11.2 -0.5 0 -0.4 0.4 0.3 0.9 0.9 0.5 1.1 1.7 0.6 3.5 -0.5 1.9 -0.9 2.4 -1.5 1.5 -0.4 -0.7 -0.7 1.1 -0.7 4.2 0.1 3.8 -0.5 6.6 -2 9.4 -1.3 2.2 -1.8 4.1 -1.2 4.3 0.5 0.2 1 0.8 1 1.4 0 0.6 -0.6 0.8 -1.3 0.5 -0.8 -0.3 -1.3 0.3 -1.3 1.4 0 1.1 0.5 1.9 1 1.9 0.5 0 0.1 0.7 -1 1.6 -1 0.8 -1.3 1.3 -0.6 0.9 0.8 -0.4 1.2 0.1 1.2 1.5 0 1.1 -0.6 2.3 -1.4 2.6 -0.9 0.3 -1.2 1.2 -0.9 2.1 0.4 1.1 0.2 1.4 -0.5 0.9 -0.9 -0.5 -1.2 1 -1.2 5.7 0 7.2 -0.7 8.6 -2.7 5.7 -0.8 -1.1 -1.9 -1.7 -2.5 -1.4 -0.6 0.4 -0.8 0.3 -0.5 -0.3 0.6 -1 -3.2 -5.3 -3.8 -4.3 -0.2 0.3 -2 -1.4 -4 -3.7 -2 -2.3 -4.8 -4.8 -6.3 -5.5 -1.5 -0.7 -2.7 -1.8 -2.7 -2.4 0 -1.6 -6.1 -6.5 -7 -5.6 -0.5 0.4 -0.5 0.1 -0.1 -0.6 0.5 -0.7 -0.2 -1.5 -1.7 -2.1 -1.3 -0.5 -3.1 -2.1 -4 -3.5 -2.6 -3.9 -5.2 -5 -8 -3.1 -1.3 0.8 -2.8 1.2 -3.3 0.8 -0.5 -0.5 -0.6 -0.4 -0.2 0.1 0.5 0.5 -1.7 3.4 -4.7 6.4 -3 3 -5.5 6 -5.5 6.6 0 0.6 -3.4 4.2 -7.5 7.9 -4.2 3.8 -7.2 7.3 -6.9 7.9 0.4 0.6 0.2 0.8 -0.3 0.5 -0.6 -0.4 -2.4 0.9 -4 2.9 -3.2 4.1 -6.5 7.5 -11.6 12.3 -2 1.8 -3.4 3.8 -3 4.4 0.3 0.5 0.2 0.7 -0.4 0.4 -1.2 -0.7 -6.3 3.9 -6.3 5.8 0 1.7 -4.9 5.7 -6.1 4.9 -0.5 -0.3 -0.9 0.1 -0.9 0.9 0 0.8 -0.9 2.2 -2 3.2 -1.1 1 -1.8 2.1 -1.5 2.5 0.2 0.4 -0.7 1.8 -2 3 -1.4 1.3 -2.5 2 -2.5 1.5 0 -0.5 -1.6 0.6 -3.5 2.5 -1.9 1.9 -3.5 3.9 -3.5 4.5 0 1.5 -6.3 7.5 -7.9 7.5 -0.7 0 -1.1 0.6 -0.8 1.4 0.4 1.1 0.1 1.3 -1 0.9 -1.2 -0.5 -1.5 -0.2 -1 1 0.3 0.9 0.1 1.9 -0.5 2.3 -0.7 0.4 -0.8 0.3 -0.4 -0.4 0.4 -0.7 0.4 -1.2 0.1 -1.2 -0.9 0 -5.4 5.3 -5.5 6.4 0 1 -10 11.9 -10 10.9 0 -0.3 -0.7 0 -1.5 0.7 -0.8 0.7 -1.3 1.6 -1 2 0.3 0.5 0 1.2 -0.6 1.6 -0.8 0.4 -0.9 0.3 -0.5 -0.4 0.4 -0.7 0.2 -1.2 -0.3 -1.2 -0.6 0 -1.2 0.5 -1.2 1 -0.1 0.6 -0.2 1.5 -0.3 2 0 0.6 -0.5 1 -1.1 1 -1.3 0.1 -7.5 6.1 -7.5 7.4 0 0.5 -0.7 1.7 -1.6 2.7 -1.5 1.7 -1.9 1.4 -7.6 -4.6 -3.3 -3.6 -6.5 -6.3 -7.1 -6.2 -0.7 0.1 -1.1 -0.3 -1 -1 0.2 -0.7 -3.6 -4.7 -8.2 -9 -4.7 -4.2 -8.4 -8.2 -8.2 -8.8 0.4 -1 -4.1 -5 -5.5 -5 -0.5 0 -1.6 -1.2 -2.6 -2.6 -0.9 -1.4 -5 -5.6 -8.9 -9.4 -4 -3.8 -7.3 -7.4 -7.3 -8 -0.1 -1.4 -6 -7.6 -9.9 -10.4 -1.7 -1.2 -3.1 -2.8 -3.1 -3.5 0 -1.8 -9.5 -10.8 -10.5 -9.9 -0.4 0.5 -0.5 0.3 -0.2 -0.4 0.4 -0.6 -0.6 -2.2 -2.1 -3.5 -1.5 -1.3 -3.1 -3.1 -3.5 -4.1 -0.3 -0.9 -1.3 -1.7 -2.2 -1.7 -0.8 0 -1.5 -0.6 -1.5 -1.3 0 -1.3 -4 -5.7 -5.3 -5.7 -1.4 0 -8.2 5.3 -7.9 6.2 0.1 0.5 -0.2 0.7 -0.7 0.4 -0.5 -0.4 -1.2 -0.2 -1.6 0.4 -0.4 0.6 -1.1 0.8 -1.6 0.4 -0.5 -0.3 -0.8 -0.1 -0.7 0.3 0.2 0.5 -1 2.4 -2.7 4.3 -8.6 9.6 -14.9 16 -15.9 16 -1.8 0 -10.8 9.5 -9.9 10.4 0.5 0.4 0.1 0.6 -0.7 0.4 -0.8 -0.2 -1.4 0.3 -1.3 0.9 0.2 0.7 -0.1 1.2 -0.5 1 -0.5 -0.1 -4.9 3.9 -9.8 8.9 -4.9 5.1 -9.5 9.3 -10.1 9.5 -1.6 0.5 -19.7 18.3 -23 22.6 -1.4 1.8 -2.9 3 -3.4 2.7 -0.5 -0.3 -0.9 0.2 -0.9 1 0 0.9 -0.5 1.6 -1.1 1.6 -1.6 0 -12.9 11.1 -12.3 12.1 0.2 0.4 -0.5 0.6 -1.7 0.4 -1.2 -0.2 -1.9 -0.1 -1.5 0.2 0.3 0.4 -2.3 3.5 -5.9 7 -3.5 3.5 -6.4 6.7 -6.3 7.1 0 0.4 -0.8 1.2 -2 1.7 -1.1 0.6 -2.7 1.6 -3.5 2.3 -0.8 0.7 -1.8 0.9 -2.1 0.4z m313.7 -267.1 l5.8 -0.1 -2 -2.9 c-1.1 -1.5 -1.7 -3.2 -1.3 -3.6 0.4 -0.5 0.2 -0.5 -0.5 -0.2 -0.6 0.4 -3.9 -2.1 -7.6 -5.8 -3.5 -3.5 -6.7 -6.1 -7.1 -5.8 -0.3 0.4 -0.6 0.1 -0.6 -0.6 0 -1.6 -7.2 -8.7 -8.5 -8.3 -0.5 0.2 -0.7 0 -0.2 -0.4 0.8 -0.9 -3.1 -5.4 -4.8 -5.4 -0.6 0 -3.3 -2.2 -6 -5 -2.7 -2.7 -4.5 -5 -4 -5 0.6 0 -0.5 -0.9 -2.3 -2 -3.9 -2.4 -4.2 -2.4 -4.2 -0.5 0 0.8 -0.3 1.5 -0.7 1.5 -0.5 0 -0.8 9.6 -0.8 21.4 0 11.8 0.3 21.2 0.6 21 0.4 -0.2 0.9 0.2 1.2 0.9 0.4 1.1 16.7 1.4 43 0.8z"/>
 </g>
</svg>